<?xml version="1.0" encoding="utf-8"?>
<!-- Generator: Adobe Illustrator 19.1.0, SVG Export Plug-In . SVG Version: 6.00 Build 0)  -->

<!--popsicle-dip-->

<svg version="1.1" id="Layer_1" xmlns="http://www.w3.org/2000/svg" xmlns:xlink="http://www.w3.org/1999/xlink" x="0px" y="0px"
	 viewBox="0 0 213.4 335.9" style="enable-background:new 0 0 213.4 335.9;" xml:space="preserve">
<style type="text/css">
	.st0{fill:#ECBB87;}
	.st1{fill:#FAFAFA;}
	.st2{fill:#F27A95;}
</style>
<g>
	<g>
		<g>
			<path class="st0" d="M107,335.9c18.6,0,33.7-15.1,33.7-33.7v-10.1v-31.9c0-5.6-4.5-10.1-10.1-10.1H83.4
				c-5.6,0-10.1,4.5-10.1,10.1v31.9v10.1C73.3,320.8,88.4,335.9,107,335.9z"/>
		</g>
	</g>
	<g>
		<g>
			<path class="st1" d="M107,9.2C51.7,9.2,7,54,7,109.2v30v94.7c0,16.5,13.5,30,30,30h140c16.5,0,30-13.5,30-30v-94.7v-30
				C207,54,162.2,9.2,107,9.2z"/>
		</g>
	</g>
	<g>
		<g>
			<path class="st2" d="M36.1,100.1c35.4,8.6,69.8,33.3,104.1,19.3c21-8.5,44.7-18.3,67.1-18.6c5.4-0.1,6.3-5.2,6-8
				C206.2,40.4,161.3,0,107,0C50.9,0,5.4,43,0,97.7c-0.4,4.2,3.7,7,5.9,5.9C15.2,99.1,26,97.6,36.1,100.1z"/>
		</g>
	</g>
</g>
</svg>
