<?xml version="1.0" encoding="utf-8"?>
<!-- Generator: Adobe Illustrator 19.1.0, SVG Export Plug-In . SVG Version: 6.00 Build 0)  -->

<!--sushi--> 

<svg version="1.1" id="Layer_1" xmlns="http://www.w3.org/2000/svg" xmlns:xlink="http://www.w3.org/1999/xlink" x="0px" y="0px"
	 viewBox="0 0 351.7 351.7" style="enable-background:new 0 0 351.7 351.7;" xml:space="preserve">
<style type="text/css">
	.st0{fill:#F7F8F8;}
	.st1{fill:#241F20;}
	.st2{fill:#DF1E2F;}
</style>
<g>
	<g>
		<g>
			<g>
				<g>
					<path class="st0" d="M263.3,264.2c12.5,12.5,12.5,33,0,45.5L235,338c-12.5,12.5-33,12.5-45.5,0l-28.3-28.3
						c-12.5-12.5-12.5-33,0-45.5l28.3-28.3c12.5-12.5,33-12.5,45.5,0L263.3,264.2z"/>
				</g>
			</g>
		</g>
		<g>
			<g>
				<g>
					<path class="st1" d="M266.3,312.7L238,341c-14.2,14.2-37.3,14.2-51.5,0l-28.3-28.3c-14.2-14.2-14.2-37.3,0-51.5l28.3-28.3
						c14.2-14.2,37.3-14.2,51.5,0l28.3,28.3C280.5,275.4,280.5,298.5,266.3,312.7z M164.2,267.2c-10.9,10.9-10.9,28.6,0,39.5
						l28.3,28.3c10.9,10.9,28.6,10.9,39.5,0l28.3-28.3c10.9-10.9,10.9-28.6,0-39.5L232,238.9c-10.9-10.9-28.6-10.9-39.5,0
						L164.2,267.2z"/>
				</g>
			</g>
		</g>
	</g>
	<g>
		<g>
			<g>
				<path class="st2" d="M230,269.2c9.8,9.8,9.8,25.7,0,35.5c-9.8,9.8-25.7,9.8-35.5,0c-9.8-9.8-9.8-25.7,0-35.5
					C204.3,259.5,220.2,259.5,230,269.2z"/>
			</g>
		</g>
	</g>
	<g>
		<g>
			<g>
				<g>
					<path class="st0" d="M189.5,190.4c12.5,12.5,12.5,33,0,45.5l-28.3,28.3c-12.5,12.5-33,12.5-45.5,0l-28.3-28.3
						c-12.5-12.5-12.5-33,0-45.5l28.3-28.3c12.5-12.5,33-12.5,45.5,0L189.5,190.4z"/>
				</g>
			</g>
		</g>
		<g>
			<g>
				<g>
					<path class="st1" d="M192.5,238.9l-28.3,28.3c-14.2,14.2-37.3,14.2-51.5,0l-28.3-28.3c-14.2-14.2-14.2-37.3,0-51.5l28.3-28.3
						c14.2-14.2,37.3-14.2,51.5,0l28.3,28.3C206.7,201.6,206.7,224.7,192.5,238.9z M90.4,193.4c-10.9,10.9-10.9,28.6,0,39.5
						l28.3,28.3c10.9,10.9,28.6,10.9,39.5,0l28.3-28.3c10.9-10.9,10.9-28.6,0-39.5l-28.3-28.3c-10.9-10.9-28.6-10.9-39.5,0
						L90.4,193.4z"/>
				</g>
			</g>
		</g>
	</g>
	<g>
		<g>
			<g>
				<path class="st2" d="M156.2,195.4c9.8,9.8,9.8,25.7,0,35.5c-9.8,9.8-25.7,9.8-35.5,0c-9.8-9.8-9.8-25.7,0-35.5
					C130.5,185.7,146.5,185.7,156.2,195.4z"/>
			</g>
		</g>
	</g>
	<g>
		<g>
			<g>
				<g>
					<path class="st0" d="M115.7,116.7c12.5,12.5,12.5,33,0,45.5l-28.3,28.3c-12.5,12.5-33,12.5-45.5,0l-28.3-28.3
						c-12.5-12.5-12.5-33,0-45.5L42,88.3c12.5-12.5,33-12.5,45.5,0L115.7,116.7z"/>
				</g>
			</g>
		</g>
		<g>
			<g>
				<g>
					<path class="st1" d="M118.7,165.1l-28.3,28.3c-14.2,14.2-37.3,14.2-51.5,0l-28.3-28.3c-14.2-14.2-14.2-37.3,0-51.5L39,85.3
						c14.2-14.2,37.3-14.2,51.5,0l28.3,28.3C132.9,127.8,132.9,150.9,118.7,165.1z M16.6,119.7c-10.9,10.9-10.9,28.6,0,39.5
						L45,187.4c10.9,10.9,28.6,10.9,39.5,0l28.3-28.3c10.9-10.9,10.9-28.6,0-39.5L84.4,91.4c-10.9-10.9-28.6-10.9-39.5,0L16.6,119.7
						z"/>
				</g>
			</g>
		</g>
	</g>
	<g>
		<g>
			<g>
				<path class="st2" d="M82.4,121.7c9.8,9.8,9.8,25.7,0,35.5c-9.8,9.8-25.7,9.8-35.5,0c-9.8-9.8-9.8-25.7,0-35.5
					C56.7,111.9,72.7,111.9,82.4,121.7z"/>
			</g>
		</g>
	</g>
	<g>
		<g>
			<g>
				<g>
					<path class="st0" d="M338,189.5c12.5,12.5,12.5,33,0,45.5l-28.3,28.3c-12.5,12.5-33,12.5-45.5,0L235.9,235
						c-12.5-12.5-12.5-33,0-45.5l28.3-28.3c12.5-12.5,33-12.5,45.5,0L338,189.5z"/>
				</g>
			</g>
		</g>
		<g>
			<g>
				<g>
					<path class="st1" d="M341,238l-28.3,28.3c-14.2,14.2-37.3,14.2-51.5,0L232.9,238c-14.2-14.2-14.2-37.3,0-51.5l28.3-28.3
						c14.2-14.2,37.3-14.2,51.5,0l28.3,28.3C355.2,200.7,355.2,223.8,341,238z M238.9,192.5c-10.9,10.9-10.9,28.6,0,39.5l28.3,28.3
						c10.9,10.9,28.6,10.9,39.5,0L335,232c10.9-10.9,10.9-28.6,0-39.5l-28.3-28.3c-10.9-10.9-28.6-10.9-39.5,0L238.9,192.5z"/>
				</g>
			</g>
		</g>
	</g>
	<g>
		<g>
			<g>
				<path class="st2" d="M304.7,194.5c9.8,9.8,9.8,25.7,0,35.5c-9.8,9.8-25.7,9.8-35.5,0c-9.8-9.8-9.8-25.7,0-35.5
					C279,184.8,294.9,184.8,304.7,194.5z"/>
			</g>
		</g>
	</g>
	<g>
		<g>
			<g>
				<g>
					<path class="st0" d="M264.2,115.7c12.5,12.5,12.5,33,0,45.5l-28.3,28.3c-12.5,12.5-33,12.5-45.5,0l-28.3-28.3
						c-12.5-12.5-12.5-33,0-45.5l28.3-28.3c12.5-12.5,33-12.5,45.5,0L264.2,115.7z"/>
				</g>
			</g>
		</g>
		<g>
			<g>
				<g>
					<path class="st1" d="M267.2,164.2l-28.3,28.3c-14.2,14.2-37.3,14.2-51.5,0l-28.3-28.3c-14.2-14.2-14.2-37.3,0-51.5l28.3-28.3
						c14.2-14.2,37.3-14.2,51.5,0l28.3,28.3C281.4,126.9,281.4,150,267.2,164.2z M165.1,118.7c-10.9,10.9-10.9,28.6,0,39.5
						l28.3,28.3c10.9,10.9,28.6,10.9,39.5,0l28.3-28.3c10.9-10.9,10.9-28.6,0-39.5l-28.3-28.3c-10.9-10.9-28.6-10.9-39.5,0
						L165.1,118.7z"/>
				</g>
			</g>
		</g>
	</g>
	<g>
		<g>
			<g>
				<path class="st2" d="M230.9,120.7c9.8,9.8,9.8,25.7,0,35.5c-9.8,9.8-25.7,9.8-35.5,0c-9.8-9.8-9.8-25.7,0-35.5
					C205.2,111,221.2,111,230.9,120.7z"/>
			</g>
		</g>
	</g>
	<g>
		<g>
			<g>
				<g>
					<path class="st0" d="M190.4,42c12.5,12.5,12.5,33,0,45.5l-28.3,28.3c-12.5,12.5-33,12.5-45.5,0L88.3,87.4
						c-12.5-12.5-12.5-33,0-45.5l28.3-28.3c12.5-12.5,33-12.5,45.5,0L190.4,42z"/>
				</g>
			</g>
		</g>
		<g>
			<g>
				<g>
					<path class="st1" d="M193.4,90.4l-28.3,28.3c-14.2,14.2-37.3,14.2-51.5,0L85.3,90.4c-14.2-14.2-14.2-37.3,0-51.5l28.3-28.3
						c14.2-14.2,37.3-14.2,51.5,0L193.4,39C207.6,53.1,207.6,76.2,193.4,90.4z M91.3,45c-10.9,10.9-10.9,28.6,0,39.5l28.3,28.3
						c10.9,10.9,28.6,10.9,39.5,0l28.3-28.3c10.9-10.9,10.9-28.6,0-39.5l-28.3-28.3c-10.9-10.9-28.6-10.9-39.5,0L91.3,45z"/>
				</g>
			</g>
		</g>
	</g>
	<g>
		<g>
			<g>
				<path class="st2" d="M157.1,47c9.8,9.8,9.8,25.7,0,35.5c-9.8,9.8-25.7,9.8-35.5,0c-9.8-9.8-9.8-25.7,0-35.5
					C131.4,37.2,147.4,37.2,157.1,47z"/>
			</g>
		</g>
	</g>
</g>
</svg>
