<?xml version="1.0" encoding="utf-8"?>
<!-- Generator: Adobe Illustrator 19.1.0, SVG Export Plug-In . SVG Version: 6.00 Build 0)  -->

<!--chef hat-->

<svg version="1.1" id="Layer_1" xmlns="http://www.w3.org/2000/svg" xmlns:xlink="http://www.w3.org/1999/xlink" x="0px" y="0px"
	 viewBox="0 0 363.8 330.6" style="enable-background:new 0 0 363.8 330.6;" xml:space="preserve">
<style type="text/css">
	.st0{fill:#F3F0F0;}
	.st1{fill:#F7F6F6;}
</style>
<g>
	<g>
		<g>
			<path class="st0" d="M290.5,300.3c-34.2,42.3-179.1,38.5-217.5,0c-15.4-15.4-13.6-77.3-9-128.7c3.6-39.8,233.9-36.5,238.1,7.2
				C306.4,226,307.1,279.8,290.5,300.3z"/>
		</g>
	</g>
	<g>
		<g>
			<g>
				<path class="st1" d="M0,153.8c0-31.3,23.6-57.2,54-60.7C57.8,41.1,101.2,0,154.2,0c34.6,0,65.2,17.5,83.3,44.2
					c4.3-1.1,8.7-1.7,13.4-1.7c28.5,0,51.9,22.2,53.8,50.2c32.9,1,59.2,28,59.2,61.1c0,33.8-28.6,52.1-61.1,61.1
					c-52.6,14.7-180.6,15.7-241.5,0C28.4,206.5,0,187.5,0,153.8z"/>
			</g>
		</g>
	</g>
</g>
</svg>
