<?xml version="1.0" encoding="utf-8"?>
<!-- Generator: Adobe Illustrator 19.1.0, SVG Export Plug-In . SVG Version: 6.00 Build 0)  -->

<!--fish--> 

<svg version="1.1" id="Layer_1" xmlns="http://www.w3.org/2000/svg" xmlns:xlink="http://www.w3.org/1999/xlink" x="0px" y="0px"
	 viewBox="0 0 373.2 250.8" style="enable-background:new 0 0 373.2 250.8;" xml:space="preserve">
<style type="text/css">
	.st0{fill:#7FB0CF;}
	.st1{fill:#A9D1EA;}
	.st2{fill:#EAE2F0;}
	.st3{fill:#434039;}
</style>
<g>
	<g>
		<g>
			<path class="st0" d="M134.7,24.6C162.5,10.7,194.5-0.8,226,4.6c6.4,1.1,12.7,2.9,18.7,5.3C249,9.4,253.4,9,257.8,9
				c11.7,0,23.3,1.8,34.6,5.1c11.5,3.3,23.2,7.5,33.5,13.8c31.7,19.3,48.6,56.5,47.2,93.1c-1.4,35.6-20.7,70.5-55.4,83
				c-8.5,3.1-17.4,4.8-26.5,5.5c-15,19.2-38,35.5-63.4,30.4c-0.9-0.2-0.4-2,0.1-2.4c11-8.6,21.2-18.9,28.8-30.8
				c-1.8-0.4-3.7-0.9-5.5-1.4c-23.3-6.4-44.1-19.1-63.7-33c-17.6-12.4-34.7-26.7-54.3-35.9c-8.3-3.9-17.3-6.8-26.5-7.1
				c-3.8-0.1-7.5,0.2-11.2,0.9c4.4,18.3,0.9,37.7-4.1,55.5c-5.9,21.2-14.7,41.6-18.9,63.2c-0.2,0.8-1.1,2.7-2,1.4
				c-11.3-15.8-8.5-34.7-6.9-52.8c1.5-17.2-0.5-34.7-8.3-50.3c-12.9-25.7-40.1-41.6-50.3-68.9C0.1,65.7-0.5,51.4,0.3,37.8
				C1.2,24.3,4.4,10.4,13.9,0.2C14.2-0.2,14.9,0,15,0.6c2.5,13.8,6.4,27.5,13.6,39.7C36,52.7,46.1,62.7,57.4,71.5
				c11,8.5,29.3,14.2,37.5,26.1c6.6-1.6,13.1-3.8,19.3-6.7c23.6-10.9,42.1-29.3,61.9-45.9c-13.3-7.5-27.3-13.6-41.7-18.9
				C134,25.8,134.3,24.8,134.7,24.6z M307.4,94.2c7.7,0,13.9-5.8,13.9-13c0-7.2-6.2-13-13.9-13c-7.7,0-13.9,5.8-13.9,13
				C293.5,88.4,299.8,94.2,307.4,94.2z"/>
		</g>
	</g>
	<g>
		<g>
			<path class="st1" d="M325.8,43.9c-8.3-3.9-18.3-7.2-31.7-10.2c-11.1-2.5-22-3.7-32.5-3.7h-0.1c-4,0-8.1,0.2-12.2,0.7
				c0,0-1.5,0.2-2,0.2c-26.4,3.4-35.1,7.9-54.6,20.5c-2.1,1.3-8.2,5.4-8.2,5.4c-3.9,2.5-7.8,5.2-11.6,7.8
				c-11.8,8-23.9,16.2-37.5,22.8c12.1-8,23.1-17.5,33.8-26.8c3.8-3.3,7.7-6.7,11.6-9.9l8.2-6.9l-9.3-5.2c-8.7-4.9-18-9.4-28.2-13.7
				c22-9.6,40.6-14.1,57.9-14.1c5.2,0,10.3,0.4,15.2,1.3c5.8,1,11.6,2.7,17.2,4.9l1.8,0.7l2-0.3c4.1-0.6,8.2-0.9,12.2-0.9h0.1
				c10.5,0,21.5,1.6,32.5,4.8c13.3,3.8,23.4,8,31.7,13c10.6,6.4,19.7,15.3,26.9,26C342.4,53.6,334.6,48.1,325.8,43.9z"/>
		</g>
	</g>
	<g>
		<g>
			<path class="st1" d="M263.1,57.1c-49.7,2.1-79.7,42.9-76.3,40.4c1.9-1.4,2.4-2.6,6.9-6.8c6.5-6,20.3-19.4,49.7-23.6
				c45-6.4,57.4,18.9,63.6,11.2c4.1-5.1-6-11.4-9.8-13.6C287.8,59.2,271.8,56.7,263.1,57.1z"/>
		</g>
	</g>
	<g>
		<g>
			<path class="st1" d="M262.1,79.1c-33.8,6-50.5,36.6-48.4,34.5c1.2-1.1,1.4-2,4.1-5.3c3.9-4.7,12.1-15.1,31.8-20.6
				c30.2-8.5,40.9,7.7,44.4,1.9c2.3-3.8-5.1-7.2-7.9-8.4C279.1,78.3,268,78.1,262.1,79.1z"/>
		</g>
	</g>
	<g>
		<g>
			<path class="st1" d="M263.3,97c-20,11.4-23.7,34.5-22.8,32.7c0.5-1,0.4-1.6,1.4-4.3c1.4-3.8,4.2-12.2,15.4-20.2
				c17.1-12.2,27.6-4.4,28.5-8.8c0.6-2.9-4.9-3.4-6.9-3.5C273.9,92.6,266.8,95,263.3,97z"/>
		</g>
	</g>
	<g>
		<g>
			<path class="st2" d="M330.7,86.7c0-14.7-11.9-26.6-26.6-26.6c-14.7,0-26.6,11.9-26.6,26.6c0,14.7,11.9,26.6,26.6,26.6
				C318.8,113.3,330.7,101.4,330.7,86.7z"/>
		</g>
	</g>
	<g>
		<g>
			<circle class="st3" cx="304.1" cy="86.7" r="10.4"/>
		</g>
	</g>
</g>
</svg>
