<?xml version="1.0" encoding="utf-8"?>
<!-- Generator: Adobe Illustrator 19.1.0, SVG Export Plug-In . SVG Version: 6.00 Build 0)  -->

<!--meat-->

<svg version="1.1" id="Layer_1" xmlns="http://www.w3.org/2000/svg" xmlns:xlink="http://www.w3.org/1999/xlink" x="0px" y="0px"
	 viewBox="0 0 360.7 306.3" style="enable-background:new 0 0 360.7 306.3;" xml:space="preserve">
<style type="text/css">
	.st0{fill:#46322C;}
	.st1{fill:#C87059;}
	.st2{fill:#FEEEE8;}
	.st3{fill:#B88479;}
</style>
<g>
	<g>
		<g>
			<path class="st0" d="M269.1,48.2c-37.8-6.9-77.2,27.2-114.6,20.9c-38.6-6.5-35.8-74.9-88-68.7C-30,11.8-5.3,193.7,39.6,245.1
				c77.1,88.4,202.7,75.8,278.8-4.7C384.7,170.3,376.6,67.9,269.1,48.2z"/>
		</g>
	</g>
	<g>
		<g>
			<path class="st1" d="M206.7,280.2c-79.3,22.5-166.5-44-176.4-121.9C26,123.7,23.2,77.6,40.7,45.6c26.9-49,59.6,3.2,78,26.9
				c52.1,67.3,125.9-45.9,189.3,19.6C381.5,168,277,260.3,206.7,280.2z"/>
		</g>
	</g>
	<g>
		<g>
			<circle class="st2" cx="225.4" cy="167" r="45.4"/>
		</g>
	</g>
	<g>
		<g>
			<circle class="st3" cx="225.4" cy="167" r="27.3"/>
		</g>
	</g>
</g>
</svg>
