<?xml version="1.0" encoding="utf-8"?>
<!-- Generator: Adobe Illustrator 19.1.0, SVG Export Plug-In . SVG Version: 6.00 Build 0)  -->

<!--pizza--> 

<svg version="1.1" id="Layer_1" xmlns="http://www.w3.org/2000/svg" xmlns:xlink="http://www.w3.org/1999/xlink" x="0px" y="0px"
	 viewBox="0 0 350.5 350.5" style="enable-background:new 0 0 350.5 350.5;" xml:space="preserve">
<style type="text/css">
	.st0{fill:#E8B339;}
	.st1{fill:#FEDF84;}
	.st2{fill:#712E2E;}
	.st3{fill:#ED6060;}
</style>
<g>
	<g>
		<g>
			<path class="st0" d="M315.6,348.9c25,6.7,39.9-8.3,33.2-33.2L272.6,31c-6.7-25-31.8-37.4-55.7-27.7c0,0-80.6,32.8-130.7,82.9
				C36.2,136.3,3.3,216.9,3.3,216.9c-9.8,23.9,2.7,49,27.7,55.7L315.6,348.9z"/>
		</g>
	</g>
	<g>
		<g>
			<path class="st1" d="M315.6,348.9c25,6.7,39.9-8.3,33.2-33.2L286,81c-6.7-25-31.8-37.4-55.7-27.7c0,0-64.1,26.1-107.5,69.5
				c-43.4,43.4-69.5,107.5-69.5,107.5c-9.8,23.9,2.7,49,27.7,55.7L315.6,348.9z"/>
		</g>
	</g>
	<g>
		<g>
			<g>
				<circle class="st2" cx="144.8" cy="193.8" r="53.1"/>
			</g>
		</g>
		<g>
			<g>
				<circle class="st2" cx="276" cy="272.5" r="53.1"/>
			</g>
		</g>
		<g>
			<g>
				<path class="st2" d="M205.7,315.9c0-29.3-23.8-53.1-53.1-53.1c-20.9,0-39,12.1-47.6,29.6l100.6,27
					C205.6,318.2,205.7,317.1,205.7,315.9z"/>
			</g>
		</g>
		<g>
			<g>
				<path class="st2" d="M267.9,77.1c-29.3,0-53.1,23.8-53.1,53.1c0,29.3,23.8,53.1,53.1,53.1c16.2,0,30.7-7.3,40.5-18.8l-22.6-84.4
					C280.2,78.2,274.2,77.1,267.9,77.1z"/>
			</g>
		</g>
	</g>
	<g>
		<g>
			<g>
				<circle class="st3" cx="256" cy="252.5" r="3.6"/>
			</g>
		</g>
		<g>
			<g>
				<circle class="st3" cx="262.3" cy="289" r="2.7"/>
			</g>
		</g>
		<g>
			<g>
				<circle class="st3" cx="254.1" cy="133.1" r="2.8"/>
			</g>
		</g>
		<g>
			<g>
				<path class="st3" d="M250.7,289.5c2,0,3.6-1.6,3.6-3.6c0-2-1.6-3.6-3.6-3.6c-2,0-3.6,1.6-3.6,3.6
					C247.1,287.9,248.7,289.5,250.7,289.5z"/>
			</g>
		</g>
		<g>
			<g>
				<circle class="st3" cx="242.5" cy="143.7" r="3.6"/>
			</g>
		</g>
		<g>
			<g>
				<circle class="st3" cx="262.2" cy="275.3" r="2.8"/>
			</g>
		</g>
		<g>
			<g>
				<circle class="st3" cx="242.1" cy="263.4" r="4.9"/>
			</g>
		</g>
		<g>
			<g>
				<circle class="st3" cx="239.6" cy="277.7" r="2.4"/>
			</g>
		</g>
		<g>
			<g>
				<circle class="st3" cx="238.4" cy="294.6" r="1.2"/>
			</g>
		</g>
		<g>
			<g>
				<circle class="st3" cx="259.1" cy="305.7" r="4.5"/>
			</g>
		</g>
		<g>
			<g>
				<circle class="st3" cx="280.3" cy="293.4" r="7.1"/>
			</g>
		</g>
		<g>
			<g>
				<circle class="st3" cx="295.4" cy="274.3" r="6.4"/>
			</g>
		</g>
		<g>
			<g>
				<circle class="st3" cx="295.4" cy="309.6" r="3.9"/>
			</g>
		</g>
		<g>
			<g>
				<circle class="st3" cx="298.7" cy="294.7" r="3.3"/>
			</g>
		</g>
		<g>
			<g>
				<circle class="st3" cx="268.2" cy="262.1" r="3.2"/>
			</g>
		</g>
		<g>
			<g>
				<circle class="st3" cx="275.5" cy="308.4" r="4.5"/>
			</g>
		</g>
		<g>
			<g>
				<circle class="st3" cx="266.6" cy="243.3" r="1.6"/>
			</g>
		</g>
		<g>
			<g>
				<circle class="st3" cx="299" cy="258.5" r="3.6"/>
			</g>
		</g>
		<g>
			<g>
				<circle class="st3" cx="267.4" cy="166.2" r="4.5"/>
			</g>
		</g>
		<g>
			<g>
				<circle class="st3" cx="258.5" cy="101" r="1.6"/>
			</g>
		</g>
		<g>
			<g>
				<path class="st3" d="M260.1,123c1.8,0,3.2-1.4,3.2-3.2s-1.4-3.2-3.2-3.2c-1.8,0-3.2,1.4-3.2,3.2S258.3,123,260.1,123z"/>
			</g>
		</g>
		<g>
			<g>
				<circle class="st3" cx="272.2" cy="151.2" r="7.1"/>
			</g>
		</g>
		<g>
			<g>
				<circle class="st3" cx="247.9" cy="96.3" r="3.1"/>
			</g>
		</g>
		<g>
			<g>
				<circle class="st3" cx="272.3" cy="115.3" r="3.8"/>
			</g>
		</g>
		<g>
			<g>
				<circle class="st3" cx="231.5" cy="135.5" r="2.4"/>
			</g>
		</g>
		<g>
			<g>
				<circle class="st3" cx="230.3" cy="152.4" r="1.2"/>
			</g>
		</g>
		<g>
			<g>
				<circle class="st3" cx="234" cy="121.2" r="4.9"/>
			</g>
		</g>
		<g>
			<g>
				<circle class="st3" cx="247.9" cy="110.3" r="3.6"/>
			</g>
		</g>
		<g>
			<g>
				<circle class="st3" cx="256" cy="238.5" r="3.1"/>
			</g>
		</g>
		<g>
			<g>
				<circle class="st3" cx="273.8" cy="275.3" r="2.8"/>
			</g>
		</g>
		<g>
			<g>
				<circle class="st3" cx="254.2" cy="146.8" r="2.7"/>
			</g>
		</g>
		<g>
			<g>
				<circle class="st3" cx="265.7" cy="133" r="2.8"/>
			</g>
		</g>
		<g>
			<g>
				<circle class="st3" cx="290.9" cy="116.3" r="3.6"/>
			</g>
		</g>
		<g>
			<g>
				<path class="st3" d="M246.5,163.4c0,2.5,2,4.5,4.5,4.5c2.5,0,4.5-2,4.5-4.5c0-2.5-2-4.5-4.5-4.5
					C248.5,158.9,246.5,160.9,246.5,163.4z"/>
			</g>
		</g>
		<g>
			<g>
				<path class="st3" d="M280.9,132.1c0,3.5,2.9,6.4,6.4,6.4c3.5,0,6.4-2.9,6.4-6.4c0-3.5-2.9-6.4-6.4-6.4
					C283.7,125.7,280.9,128.5,280.9,132.1z"/>
			</g>
		</g>
		<g>
			<g>
				<circle class="st3" cx="290.6" cy="152.5" r="3.3"/>
			</g>
		</g>
		<g>
			<g>
				<circle class="st3" cx="280.4" cy="257.6" r="3.8"/>
			</g>
		</g>
		<g>
			<g>
				<circle class="st3" cx="280" cy="238.9" r="6.4"/>
			</g>
		</g>
		<g>
			<g>
				<circle class="st3" cx="287.3" cy="167.4" r="3.9"/>
			</g>
		</g>
		<g>
			<g>
				<circle class="st3" cx="164.2" cy="230.9" r="3.9"/>
			</g>
		</g>
		<g>
			<g>
				<circle class="st3" cx="164.2" cy="195.6" r="6.4"/>
			</g>
		</g>
		<g>
			<g>
				<circle class="st3" cx="301.8" cy="244.8" r="5.9"/>
			</g>
		</g>
		<g>
			<g>
				<circle class="st3" cx="167.4" cy="216.1" r="3.3"/>
			</g>
		</g>
		<g>
			<g>
				<path class="st3" d="M156.2,214.7c0-3.9-3.2-7.1-7.1-7.1c-3.9,0-7.1,3.2-7.1,7.1c0,3.9,3.2,7.1,7.1,7.1
					C153,221.9,156.2,218.7,156.2,214.7z"/>
			</g>
		</g>
		<g>
			<g>
				<circle class="st3" cx="148.8" cy="160.2" r="6.4"/>
			</g>
		</g>
		<g>
			<g>
				<circle class="st3" cx="142.6" cy="196.6" r="2.8"/>
			</g>
		</g>
		<g>
			<g>
				<circle class="st3" cx="135.4" cy="164.6" r="1.6"/>
			</g>
		</g>
		<g>
			<g>
				<circle class="st3" cx="149.2" cy="178.9" r="3.8"/>
			</g>
		</g>
		<g>
			<g>
				<circle class="st3" cx="178.4" cy="288.2" r="5.9"/>
			</g>
		</g>
		<g>
			<g>
				<circle class="st3" cx="124.7" cy="159.9" r="3.1"/>
			</g>
		</g>
		<g>
			<g>
				<circle class="st3" cx="107.2" cy="215.9" r="1.2"/>
			</g>
		</g>
		<g>
			<g>
				<circle class="st3" cx="170.6" cy="166.1" r="5.9"/>
			</g>
		</g>
		<g>
			<g>
				<circle class="st3" cx="186.6" cy="308.7" r="4.5"/>
			</g>
		</g>
		<g>
			<g>
				<path class="st3" d="M144.8,302.3c-0.5,0-1,0.1-1.5,0.4l4.2,1.1C146.9,302.9,145.9,302.3,144.8,302.3z"/>
			</g>
		</g>
		<g>
			<g>
				<circle class="st3" cx="182.8" cy="207.2" r="4"/>
			</g>
		</g>
		<g>
			<g>
				<circle class="st3" cx="175.5" cy="302" r="3.6"/>
			</g>
		</g>
		<g>
			<g>
				<circle class="st3" cx="178.8" cy="186.6" r="4.5"/>
			</g>
		</g>
		<g>
			<g>
				<circle class="st3" cx="137" cy="183.4" r="3.2"/>
			</g>
		</g>
		<g>
			<g>
				<circle class="st3" cx="167.7" cy="179.8" r="3.6"/>
			</g>
		</g>
		<g>
			<g>
				<circle class="st3" cx="156.9" cy="301" r="3.8"/>
			</g>
		</g>
		<g>
			<g>
				<circle class="st3" cx="271.9" cy="96.7" r="6.4"/>
			</g>
		</g>
		<g>
			<g>
				<circle class="st3" cx="156.6" cy="282.3" r="6.4"/>
			</g>
		</g>
		<g>
			<g>
				<circle class="st3" cx="144.3" cy="229.7" r="4.5"/>
			</g>
		</g>
		<g>
			<g>
				<circle class="st3" cx="143.2" cy="286.7" r="1.6"/>
			</g>
		</g>
		<g>
			<g>
				<circle class="st3" cx="314.1" cy="285.9" r="4"/>
			</g>
		</g>
		<g>
			<g>
				<circle class="st3" cx="310.1" cy="265.3" r="4.5"/>
			</g>
		</g>
		<g>
			<g>
				<path class="st3" d="M301.9,143.7c0,1.4,0.7,2.6,1.7,3.3l-1.3-5C302.1,142.5,301.9,143.1,301.9,143.7z"/>
			</g>
		</g>
		<g>
			<g>
				<path class="st3" d="M287.8,102.5c0,3.1,2.4,5.6,5.5,5.8l-2.9-10.7C288.9,98.7,287.8,100.5,287.8,102.5z"/>
			</g>
		</g>
		<g>
			<g>
				<circle class="st3" cx="131.1" cy="210.3" r="2.7"/>
			</g>
		</g>
		<g>
			<g>
				<circle class="st3" cx="131" cy="196.6" r="2.8"/>
			</g>
		</g>
		<g>
			<g>
				<circle class="st3" cx="132.5" cy="282" r="3.1"/>
			</g>
		</g>
		<g>
			<g>
				<circle class="st3" cx="132.5" cy="296" r="3.6"/>
			</g>
		</g>
		<g>
			<g>
				<circle class="st3" cx="127.9" cy="227" r="4.5"/>
			</g>
		</g>
		<g>
			<g>
				<circle class="st3" cx="110.9" cy="184.8" r="4.9"/>
			</g>
		</g>
		<g>
			<g>
				<circle class="st3" cx="108.4" cy="199" r="2.4"/>
			</g>
		</g>
		<g>
			<g>
				<circle class="st3" cx="124.7" cy="173.9" r="3.6"/>
			</g>
		</g>
		<g>
			<g>
				<path class="st3" d="M119.4,210.8c2,0,3.6-1.6,3.6-3.6c0-2-1.6-3.6-3.6-3.6c-2,0-3.6,1.6-3.6,3.6
					C115.8,209.2,117.4,210.8,119.4,210.8z"/>
			</g>
		</g>
	</g>
</g>
</svg>
