<?xml version="1.0" encoding="utf-8"?>
<!-- Generator: Adobe Illustrator 19.1.0, SVG Export Plug-In . SVG Version: 6.00 Build 0)  -->
<svg version="1.1" id="Layer_1" xmlns="http://www.w3.org/2000/svg" xmlns:xlink="http://www.w3.org/1999/xlink" x="0px" y="0px"
	 viewBox="0 0 344.1 293" style="enable-background:new 0 0 344.1 293;" xml:space="preserve">
<style type="text/css">
	.st0{fill:#FACC85;}
	.st1{fill:#BA6D4F;}
	.st2{fill:#91A63B;}
	.st3{fill:#7A2221;}
	.st4{fill:#A92D2D;}
	.st5{fill:#D42E2D;}
	.st6{fill:#E62F2E;}
	.st7{fill:#FFD99E;}
</style>
<g>
	<g>
		<g>
			<g>
				<path class="st0" d="M0,130.5c0-21.7,77-39.3,172.1-39.3c95,0,172.1,17.6,172.1,39.3C344.1,82,293.4,0,172.1,0
					C51.4,0,0,82,0,130.5z"/>
			</g>
		</g>
		<g>
			<g>
				<path class="st0" d="M172.1,244.4C77,244.4,0,226.8,0,205.2C0,253.7-4,293,172.1,293c172.1,0,172.1-39.3,172.1-87.9
					C344.1,226.8,267.1,244.4,172.1,244.4z"/>
			</g>
		</g>
	</g>
	<g>
		<g>
			<g>
				<ellipse class="st1" cx="172.1" cy="205.2" rx="172.1" ry="39.3"/>
			</g>
		</g>
		<g>
			<g>
				<ellipse class="st1" cx="172.1" cy="130.5" rx="172.1" ry="39.3"/>
			</g>
		</g>
	</g>
	<g>
		<g>
			<path class="st2" d="M54.6,193.6c-9.8,3.5-30.2,20.8-15.6,30.5c13.2,8.8,23.9-19.9,37.2-8.8c11.2,9.3-6.2,25,13.3,28.8
				c15.1,2.9,17.1-14.2,26.2-23.6c16.4-16.8,24.2-1.4,29.2,14.4c2.7,8.8-1.2,16,8.3,19.2c10.1,3.3,18.5-14.1,26.5-17.2
				c11.5-4.4,20.7,23.8,31.1,17.9c5.9-3.4-1.8-15.5,2.4-21.4c8.8-12.4,19.3,8.4,32.6,3.1c9.1-3.7,5-12.9,13.6-17.9
				c13.1-7.5,31,22.2,44,11.9c21.7-17.2-19.1-34.6-31.3-52.5"/>
		</g>
	</g>
	<g>
		<g>
			<g>
				<g>
					<path class="st3" d="M314.4,197c-9.9,7-23.7,11.4-38.8,11.4l-210.7,0c-30.3,0-54.9-17.4-54.9-38.8s24.6-38.8,54.9-38.8h210.7
						c30.3,0,54.9,17.4,54.9,38.8C330.5,180.3,324.3,190,314.4,197z"/>
				</g>
			</g>
		</g>
		<g>
			<g>
				<g>
					<path class="st4" d="M264,191.6c-7.6,4.2-18,6.7-29.6,6.7H74c-23.1,0-41.8-10.3-41.8-23c0-12.7,18.7-23,41.8-23h160.5
						c23.1,0,41.8,10.3,41.8,23C276.2,181.7,271.6,187.5,264,191.6z"/>
				</g>
			</g>
		</g>
		<g>
			<g>
				<g>
					<g>
						<path class="st5" d="M162.8,133.1c-3.9,2.2-9.4,3.5-15.4,3.5H64.1c-12,0-21.7-5.4-21.7-12c0-6.6,7.2-10.2,18.5-14.1
							c28.2-9.7,68.7-10,94,1.1c11,4.8,14.2,6.4,14.2,13C169.1,128,166.7,130.9,162.8,133.1z"/>
					</g>
				</g>
			</g>
			<g>
				<g>
					<g>
						<path class="st6" d="M137.4,123.8c-2.2,1.2-5.2,1.9-8.5,1.9h-46c-6.6,0-12-3-12-6.6c0-3.7,4-5.6,10.2-7.8
							c15.6-5.3,38-5.5,51.9,0.6c6.1,2.7,7.9,3.5,7.9,7.2C140.9,121,139.5,122.6,137.4,123.8z"/>
					</g>
				</g>
			</g>
			<g>
				<g>
					<g>
						<path class="st5" d="M287.4,133.1c-3.9,2.2-9.4,3.5-15.4,3.5h-83.3c-12,0-21.7-5.4-21.7-12c0-6.6,7.2-10.2,18.5-14.1
							c28.2-9.7,68.7-10,94,1.1c11,4.8,14.2,6.4,14.2,13C293.7,128,291.3,130.9,287.4,133.1z"/>
					</g>
				</g>
			</g>
			<g>
				<g>
					<g>
						<path class="st6" d="M261.9,123.8c-2.2,1.2-5.2,1.9-8.5,1.9h-46c-6.6,0-12-3-12-6.6c0-3.7,4-5.6,10.2-7.8
							c15.6-5.3,38-5.5,51.9,0.6c6.1,2.7,7.9,3.5,7.9,7.2C265.4,121,264,122.6,261.9,123.8z"/>
					</g>
				</g>
			</g>
		</g>
	</g>
	<g>
		<g>
			<g>
				<circle class="st7" cx="144.7" cy="33.4" r="6.9"/>
			</g>
		</g>
		<g>
			<g>
				<circle class="st7" cx="180.9" cy="54.5" r="6"/>
			</g>
		</g>
		<g>
			<g>
				<circle class="st7" cx="220.9" cy="54.8" r="6.3"/>
			</g>
		</g>
		<g>
			<g>
				<circle class="st7" cx="223.7" cy="29.9" r="6.6"/>
			</g>
		</g>
		<g>
			<g>
				<circle class="st7" cx="117.3" cy="73.8" r="8.5"/>
			</g>
		</g>
		<g>
			<g>
				<circle class="st7" cx="76" cy="76.2" r="2.5"/>
			</g>
		</g>
		<g>
			<g>
				<circle class="st7" cx="28.5" cy="78.8" r="7.9"/>
			</g>
		</g>
		<g>
			<g>
				<circle class="st7" cx="64.4" cy="57.6" r="2.8"/>
			</g>
		</g>
		<g>
			<g>
				<circle class="st7" cx="83.6" cy="48.5" r="5.1"/>
			</g>
		</g>
		<g>
			<g>
				<circle class="st7" cx="107.2" cy="35.3" r="5.4"/>
			</g>
		</g>
		<g>
			<g>
				<circle class="st7" cx="128.3" cy="17.6" r="2.5"/>
			</g>
		</g>
		<g>
			<g>
				<circle class="st7" cx="175.9" cy="19.2" r="4.1"/>
			</g>
		</g>
		<g>
			<g>
				<circle class="st7" cx="139.9" cy="54.5" r="6"/>
			</g>
		</g>
		<g>
			<g>
				<ellipse class="st7" cx="112.6" cy="51.5" rx="0" ry="3"/>
			</g>
		</g>
		<g>
			<g>
				<circle class="st7" cx="82.9" cy="30.9" r="4.4"/>
			</g>
		</g>
		<g>
			<g>
				<circle class="st7" cx="157.3" cy="74" r="3.1"/>
			</g>
		</g>
		<g>
			<g>
				<circle class="st7" cx="194.1" cy="72.5" r="7.2"/>
			</g>
		</g>
		<g>
			<g>
				<circle class="st7" cx="260.2" cy="42.5" r="5.9"/>
			</g>
		</g>
		<g>
			<g>
				<ellipse class="st7" cx="254.2" cy="61.4" rx="0" ry="3.8"/>
			</g>
		</g>
		<g>
			<g>
				<circle class="st7" cx="257.3" cy="74" r="3.1"/>
			</g>
		</g>
		<g>
			<g>
				<circle class="st7" cx="197.9" cy="37.5" r="11"/>
			</g>
		</g>
		<g>
			<g>
				<circle class="st7" cx="231.6" cy="78.4" r="4.4"/>
			</g>
		</g>
		<g>
			<g>
				<circle class="st7" cx="243.5" cy="54" r="2.5"/>
			</g>
		</g>
		<g>
			<g>
				<circle class="st7" cx="283.8" cy="63.4" r="1.9"/>
			</g>
		</g>
		<g>
			<g>
				<circle class="st7" cx="276.6" cy="79.1" r="2.8"/>
			</g>
		</g>
		<g>
			<g>
				<circle class="st7" cx="307.9" cy="67.9" r="4.6"/>
			</g>
		</g>
		<g>
			<g>
				<ellipse class="st7" cx="293.7" cy="81" rx="0" ry="1.3"/>
			</g>
		</g>
		<g>
			<g>
				<circle class="st7" cx="312.6" cy="86.6" r="4.7"/>
			</g>
		</g>
		<g>
			<g>
				<circle class="st7" cx="283.4" cy="47.5" r="4"/>
			</g>
		</g>
		<g>
			<g>
				<circle class="st7" cx="291.7" cy="87" r="4.2"/>
			</g>
		</g>
	</g>
</g>
</svg>
