<?xml version="1.0" encoding="utf-8"?>
<!-- Generator: Adobe Illustrator 19.1.0, SVG Export Plug-In . SVG Version: 6.00 Build 0)  -->
<svg version="1.1" id="Layer_1" xmlns="http://www.w3.org/2000/svg" xmlns:xlink="http://www.w3.org/1999/xlink" x="0px" y="0px"
	 viewBox="0 0 348.4 348.4" style="enable-background:new 0 0 348.4 348.4;" xml:space="preserve">
<style type="text/css">
	.st0{fill:#91CC81;}
	.st1{fill:#FAFAE6;}
	.st2{fill:#DDE683;}
	.st3{fill:#EBEB7F;}
</style>
<g>
	<g>
		<g>
			<circle class="st0" cx="174.2" cy="174.2" r="174.2"/>
		</g>
	</g>
	<g>
		<g>
			<circle class="st1" cx="174.2" cy="174.2" r="162.2"/>
		</g>
	</g>
	<g>
		<g>
			<g>
				<g>
					<path class="st2" d="M90.6,83.5c-7-7-5.9-17.1,2.4-22.4l58.6-24.3c9.7-2.1,17.6,4.3,17.6,14.2v93.2c0,9.9-5.7,12.3-12.7,5.3
						L90.6,83.5z"/>
				</g>
			</g>
		</g>
		<g>
			<g>
				<g>
					<path class="st3" d="M179.2,50.9c0-9.9,7.9-16.3,17.6-14.2l58.6,24.3c8.3,5.3,9.4,15.4,2.4,22.4l-65.9,65.9
						c-7,7-12.7,4.6-12.7-5.3V50.9z"/>
				</g>
			</g>
		</g>
		<g>
			<g>
				<g>
					<path class="st3" d="M50.9,169.2c-9.9,0-16.3-7.9-14.2-17.6L61.1,93c5.3-8.3,15.4-9.4,22.4-2.4l65.9,65.9
						c7,7,4.6,12.7-5.3,12.7H50.9z"/>
				</g>
			</g>
		</g>
		<g>
			<g>
				<g>
					<path class="st2" d="M204.3,169.2c-9.9,0-12.3-5.7-5.3-12.7l65.9-65.9c7-7,17.1-5.9,22.4,2.4l24.3,58.6
						c2.1,9.7-4.3,17.6-14.2,17.6H204.3z"/>
				</g>
			</g>
		</g>
		<g>
			<g>
				<g>
					<path class="st2" d="M179.2,204.3c0-9.9,5.7-12.3,12.7-5.3l65.9,65.9c7,7,5.9,17.1-2.4,22.4l-58.6,24.3
						c-9.7,2.1-17.6-4.3-17.6-14.2V204.3z"/>
				</g>
			</g>
		</g>
		<g>
			<g>
				<g>
					<path class="st2" d="M83.5,257.8c-7,7-17.1,5.9-22.4-2.4l-24.3-58.6c-2.1-9.7,4.3-17.6,14.2-17.6h93.2c9.9,0,12.3,5.7,5.3,12.7
						L83.5,257.8z"/>
				</g>
			</g>
		</g>
		<g>
			<g>
				<g>
					<path class="st3" d="M199,191.9c-7-7-4.6-12.7,5.3-12.7h93.2c9.9,0,16.3,7.9,14.2,17.6l-24.3,58.6c-5.3,8.3-15.4,9.4-22.4,2.4
						L199,191.9z"/>
				</g>
			</g>
		</g>
		<g>
			<g>
				<g>
					<path class="st3" d="M169.2,297.4c0,9.9-7.9,16.3-17.6,14.2L93,287.3c-8.3-5.3-9.4-15.4-2.4-22.4l65.9-65.9
						c7-7,12.7-4.6,12.7,5.3V297.4z"/>
				</g>
			</g>
		</g>
	</g>
</g>
</svg>
