<?xml version="1.0" encoding="utf-8"?>
<!-- Generator: Adobe Illustrator 19.1.0, SVG Export Plug-In . SVG Version: 6.00 Build 0)  -->
<svg version="1.1" id="Layer_1" xmlns="http://www.w3.org/2000/svg" xmlns:xlink="http://www.w3.org/1999/xlink" x="0px" y="0px"
	 viewBox="0 0 269.1 331.8" style="enable-background:new 0 0 269.1 331.8;" xml:space="preserve">
<style type="text/css">
	.st0{fill:#EDEDED;}
	.st1{fill:#D4D4D4;}
	.st2{fill:#FAFAFA;}
</style>
<g>
	<g>
		<g>
			<g>
				<path class="st0" d="M70.5,149.2h-0.3c0-29.5,37.6-50.8,37.6-85.8c0-22.1-7.5-41.6-21.9-53v64.2c0,4.5-3.6,8.1-8.1,8.1
					c-4.5,0-8.1-3.6-8.1-8.1V2.2c-2.4-0.7-5-1.2-7.6-1.6v74.1c0,4.5-3.6,8.1-8.1,8.1c-4.5,0-8.1-3.6-8.1-8.1V0.6
					c-2.7,0.4-5.2,0.9-7.6,1.6v72.5c0,4.5-3.6,8.1-8.1,8.1c-4.5,0-8.1-3.6-8.1-8.1V10.5C7.5,21.8,0,41.3,0,63.4
					c0,35,37.6,55.1,37.6,85.8h0.3c0,41.5-8.9,73-8.9,120.3c0,47.3-9.8,62.3,25.3,62.3c35,0,24.3-15,24.3-62.3
					C78.5,222.2,70.5,189.1,70.5,149.2z"/>
			</g>
		</g>
		<g>
			<g>
				<path class="st1" d="M54.2,331.8c35,0,24.3-15,24.3-62.3c0-14.4-0.7-27.4-1.8-39.7l-47.9,47.9C27.9,318.5,21.3,331.8,54.2,331.8
					z"/>
			</g>
		</g>
	</g>
	<g>
		<g>
			<g>
				<path class="st0" d="M231.6,149.2c0-29.5,37.6-50.8,37.6-85.8c0-35-18.9-63.4-53.9-63.4c-35,0-53.9,28.4-53.9,63.4
					c0,35,37.6,55.1,37.6,85.8c0,41.5-8.9,73-8.9,120.3c0,47.3-9.8,62.3,25.3,62.3c35,0,24.3-15,24.3-62.3
					C239.5,222.2,231.6,189.1,231.6,149.2z"/>
			</g>
		</g>
		<g>
			<g>
				<path class="st1" d="M263.1,31.9L183,112c8.3,11.8,15.9,23.4,15.9,37.2c0,41.5-8.9,73-8.9,120.3c0,47.3-9.8,62.3,25.3,62.3
					c35,0,24.3-15,24.3-62.3c0-47.3-8-80.4-8-120.3c0-29.5,37.6-50.8,37.6-85.8C269.1,52,267.1,41.2,263.1,31.9z"/>
			</g>
		</g>
		<g>
			<g>
				<circle class="st2" cx="199.5" cy="34.8" r="20.5"/>
			</g>
		</g>
	</g>
</g>
</svg>
