<!--beer-->

<?xml version="1.0" encoding="utf-8"?>
<!-- Generator: Adobe Illustrator 19.1.0, SVG Export Plug-In . SVG Version: 6.00 Build 0)  -->
<svg version="1.1" id="Layer_1" xmlns="http://www.w3.org/2000/svg" xmlns:xlink="http://www.w3.org/1999/xlink" x="0px" y="0px"
	 viewBox="0 0 284 340.8" style="enable-background:new 0 0 284 340.8;" xml:space="preserve">
<style type="text/css">
	.st0{fill:#FEFAD8;}
	.st1{fill:#FFCC4B;}
	.st2{fill:#FEDD8D;}
</style>
<g>
	<g>
		<g>
			<g>
				<g>
					<path class="st0" d="M152.6,313.3L152.6,313.3c-27.6,0-50-22.4-50-50V168c0-27.6,22.4-50,50-50H234c27.6,0,50,22.4,50,50v95.4
						c0,27.6-22.4,50-50,50L152.6,313.3z M152.6,158c-5.4,0-10,4.6-10,10v95.4c0,5.4,4.6,10,10,10l81.5,0c5.4,0,10-4.6,10-10V168
						c0-5.4-4.6-10-10-10H152.6z"/>
				</g>
			</g>
		</g>
		<g>
			<g>
				<path class="st0" d="M214.7,310.8c0.5,16.5-12.6,30-29.1,30H39.2c-16.5,0-29.6-13.5-29.1-30l7-222.9C17.6,71.5,31.5,58,48,58
					h128.8c16.5,0,30.4,13.5,30.9,30L214.7,310.8z"/>
			</g>
		</g>
	</g>
	<g>
		<g>
			<path class="st1" d="M39.2,319.8c-3,0-5-1.5-5.8-2.4c-0.9-0.9-2.3-2.9-2.2-5.9l7-222.9c0.2-5.1,4.8-9.6,9.9-9.6h128.8
				c5.1,0,9.8,4.5,9.9,9.6l7,222.9c0.1,3-1.4,5-2.2,5.9c-0.9,0.9-2.8,2.4-5.8,2.4H39.2z"/>
		</g>
	</g>
	<g>
		<g>
			<circle class="st2" cx="69" cy="279.3" r="10.8"/>
		</g>
	</g>
	<g>
		<g>
			<circle class="st2" cx="158.2" cy="240.7" r="10.8"/>
		</g>
	</g>
	<g>
		<g>
			<circle class="st2" cx="79.3" cy="193.5" r="10.4"/>
		</g>
	</g>
	<g>
		<g>
			<circle class="st2" cx="94.3" cy="240.7" r="15"/>
		</g>
	</g>
	<g>
		<g>
			<circle class="st2" cx="147.3" cy="203.8" r="6.2"/>
		</g>
	</g>
	<g>
		<g>
			<circle class="st2" cx="116.8" cy="175" r="8.1"/>
		</g>
	</g>
	<g>
		<g>
			<circle class="st2" cx="124.9" cy="255.7" r="8"/>
		</g>
	</g>
	<g>
		<g>
			<g>
				<circle class="st0" cx="116.8" cy="61.9" r="61.9"/>
			</g>
		</g>
		<g>
			<g>
				<circle class="st0" cx="183.1" cy="69.7" r="43.5"/>
			</g>
		</g>
		<g>
			<g>
				<circle class="st0" cx="50.4" cy="69.8" r="50.4"/>
			</g>
		</g>
	</g>
</g>
</svg>
