<!--coffee cup--> 


<?xml version="1.0" encoding="utf-8"?>
<!-- Generator: Adobe Illustrator 19.1.0, SVG Export Plug-In . SVG Version: 6.00 Build 0)  -->
<svg version="1.1" id="Layer_1" xmlns="http://www.w3.org/2000/svg" xmlns:xlink="http://www.w3.org/1999/xlink" x="0px" y="0px"
	 viewBox="0 0 265.9 350.4" style="enable-background:new 0 0 265.9 350.4;" xml:space="preserve">
<style type="text/css">
	.st0{fill:#FFFCF1;}
	.st1{fill:#DAD6CC;}
	.st2{fill:#BB3837;}
	.st3{fill:#A43130;}
	.st4{fill:#E85252;}
	.st5{fill:#F26B6D;}
</style>
<g>
	<g>
		<g>
			<path class="st0" d="M9.1,49.6l30,265.8c0,19.3,42,35,93.9,35c51.8,0,93.8-15.7,93.8-35l30-265.8H9.1z"/>
		</g>
	</g>
	<g>
		<g>
			<path class="st1" d="M178.4,49.6l-12.5,298.6c35.6-5,60.9-17.8,60.9-32.8l30-265.8H178.4z"/>
		</g>
	</g>
	<g>
		<g>
			<path class="st2" d="M213,49.6c-21.7-6.5-49.3-10.4-80-10.4c-30.7,0-58.3,3.9-80,10.4H0l4,39.2c0,27.4,55.5,49.6,128.9,49.6
				c73.4,0,128.9-22.2,128.9-49.6l4-39.2H213z"/>
		</g>
	</g>
	<g>
		<g>
			<path class="st3" d="M213,49.6c-8.5-2.6-18-4.7-28.2-6.4l-5.9,92c49.4-7,83-25.2,83-46.5l4-39.2H213z"/>
		</g>
	</g>
	<g>
		<g>
			<ellipse class="st4" cx="132.9" cy="49.6" rx="132.9" ry="49.6"/>
		</g>
	</g>
	<g>
		<g>
			<ellipse class="st5" cx="96.9" cy="43.6" rx="79.3" ry="29.6"/>
		</g>
	</g>
</g>
</svg>
