<!--coffee-bean--> 

<?xml version="1.0" encoding="utf-8"?>
<!-- Generator: Adobe Illustrator 19.1.0, SVG Export Plug-In . SVG Version: 6.00 Build 0)  -->
<svg version="1.1" id="Layer_1" xmlns="http://www.w3.org/2000/svg" xmlns:xlink="http://www.w3.org/1999/xlink" x="0px" y="0px"
	 viewBox="0 0 296.6 296.6" style="enable-background:new 0 0 296.6 296.6;" xml:space="preserve">
<style type="text/css">
	.st0{fill:#5D463C;}
	.st1{fill:#795A4E;}
</style>
<g>
	<g>
		<g>
			<g>
				<path class="st0" d="M257.3,260.4c-0.9-1.2-1.9-2.5-2.9-3.8c-1-1.3-2.1-2.6-3.2-4c-4.3-5.5-9.5-11.5-15-17.9
					c-1.4-1.6-2.9-3.1-4.3-4.8c-0.7-0.8-1.5-1.6-2.2-2.4c-0.8-0.8-1.6-1.6-2.4-2.4c-1.6-1.6-3.2-3.2-4.8-4.9
					c-0.8-0.8-1.6-1.6-2.5-2.4c-0.8-0.8-1.7-1.6-2.5-2.4c-0.8-0.8-1.7-1.6-2.6-2.4l-1.3-1.2l-1.4-1.2c-1.8-1.6-3.6-3.2-5.4-4.8
					c-0.9-0.8-1.8-1.6-2.8-2.3c-0.9-0.8-1.9-1.5-2.9-2.3c-1-0.8-1.9-1.6-2.9-2.3c-1-0.8-2-1.5-3-2.2c-7.9-6.1-16.4-11.6-25.3-16.7
					c-1.1-0.6-2.2-1.3-3.3-1.9c-1.1-0.6-2.3-1.2-3.4-1.8c-2.3-1.1-4.6-2.5-6.8-3.5l-3.3-1.6c-1.1-0.5-2.1-1.1-3.5-1.6l-7.5-3.3
					l-8.5-3.8c-1.4-0.6-2.8-1.3-4.3-2l-4.2-2.2c-2.8-1.5-5.6-2.9-8.3-4.5c-2.7-1.6-5.4-3.2-8.1-4.9c-2.7-1.6-5.3-3.5-7.9-5.2
					c-2.6-1.8-5.2-3.5-7.6-5.5c-2.4-1.9-4.9-3.9-7.3-5.8c-2.3-2-4.6-4.1-6.9-6.1c-1.1-1-2.3-2-3.3-3.1c-1.1-1.1-2.1-2.2-3.1-3.2
					c-2.1-2.2-4.2-4.2-6.1-6.4c-3.8-4.4-7.5-8.7-10.7-13.2c-3.4-4.3-6.2-8.8-8.9-13.1c-1.4-2.1-2.6-4.3-3.8-6.4
					c-1.2-2.1-2.4-4.2-3.4-6.2c-1-2.1-2-4.1-2.9-6.1c-0.9-2-1.9-3.9-2.6-5.8c-0.8-1.9-1.5-3.8-2.3-5.6c-0.7-1.8-1.5-3.5-2-5.3
					c-1.1-3.5-2.2-6.7-3.1-9.7c-0.8-3-1.6-5.8-2.2-8.3c-0.1-0.3-0.1-0.5-0.2-0.7C-16.6,79.2-7.9,157.2,65.7,230.8
					c74.5,74.5,153.4,82.5,199.5,39.9c-0.8-1.1-1.7-2.3-2.7-3.6C260.9,265.1,259.2,262.8,257.3,260.4z"/>
			</g>
		</g>
		<g>
			<g>
				<path class="st0" d="M230.8,65.7C155.3-9.8,75.3-17,29.6,27.5c0.2,0.3,0.3,0.5,0.5,0.8c0.7,0.9,1.4,1.9,2.2,3
					c1.5,2.1,3.1,4.4,4.9,6.8c1.9,2.4,3.8,5.1,6,7.9c2.1,2.8,4.5,5.7,6.9,8.7c2.4,3,5.1,6.1,7.8,9.3c1.4,1.5,2.8,3.1,4.3,4.7
					c1.5,1.6,2.9,3.3,4.5,4.8c1.5,1.6,3.1,3.2,4.7,4.8c0.4,0.4,0.8,0.8,1.2,1.2l1.3,1.2c0.8,0.8,1.7,1.6,2.5,2.4
					c0.8,0.8,1.7,1.6,2.5,2.4l1.3,1.2l1.3,1.2c1.8,1.5,3.6,3.1,5.4,4.7c0.9,0.8,1.9,1.5,2.8,2.3c1,0.8,1.9,1.5,2.9,2.3
					c1,0.8,1.9,1.5,2.9,2.3c1,0.8,2,1.4,3,2.2c2,1.4,4,2.9,6.1,4.4c2.1,1.4,4.2,2.7,6.3,4.1c2.1,1.5,4.3,2.7,6.5,4
					c2.2,1.3,4.3,2.7,6.7,3.8c2.3,1.2,4.6,2.4,6.8,3.7c1.1,0.6,2.3,1.1,3.5,1.7l3.5,1.7l3.5,1.7c1.2,0.6,2.4,1,3.6,1.6l7.2,3.2
					l8.3,3.7c1.2,0.5,2.8,1.3,4.3,2.1l4.4,2.2c3,1.5,5.7,3.1,8.5,4.7c1.4,0.8,2.8,1.6,4.1,2.4c1.3,0.9,2.7,1.7,4,2.6
					c10.7,6.9,20.6,14.7,29.4,23.2c1.1,1,2.2,2,3.3,3.1c1,1.1,2.1,2.2,3.1,3.2c2,2.2,4.1,4.2,6,6.5c3.8,4.4,7.4,8.7,10.5,13.2
					c0.8,1.1,1.6,2.2,2.4,3.3c0.8,1.1,1.6,2.1,2.3,3.3c1.4,2.2,2.8,4.4,4.2,6.5c0.7,1.1,1.3,2.1,2,3.2c0.6,1.1,1.2,2.1,1.8,3.2
					c1.2,2.1,2.3,4.2,3.4,6.2c4.3,8.2,7.6,15.8,10.2,22.6c0.6,1.7,1.3,3.3,1.9,4.9c0.5,1.6,1,3.2,1.5,4.7c0.9,3,1.8,5.7,2.5,8.2
					c0.1,0.4,0.2,0.8,0.3,1.2C313.4,219.5,305.6,140.4,230.8,65.7z"/>
			</g>
		</g>
	</g>
	<g>
		<g>
			<path class="st1" d="M267.7,256.1c-0.5-1.5-0.9-3.1-1.5-4.7c-0.6-1.6-1.2-3.2-1.9-4.9c-2.5-6.8-5.9-14.5-10.2-22.6
				c-1.1-2-2.3-4.1-3.4-6.2c-0.6-1.1-1.2-2.1-1.8-3.2c-0.7-1-1.3-2.1-2-3.2c-1.3-2.1-2.8-4.3-4.2-6.5c-0.7-1.1-1.5-2.2-2.3-3.3
				c-0.8-1.1-1.6-2.2-2.4-3.3c-3.1-4.5-6.8-8.8-10.5-13.2c-1.8-2.2-3.9-4.3-6-6.5c-1-1.1-2.1-2.2-3.1-3.2c-1-1.1-2.2-2.1-3.3-3.1
				c-8.7-8.5-18.7-16.3-29.4-23.2c-1.3-0.9-2.7-1.7-4-2.6c-1.4-0.8-2.7-1.6-4.1-2.4c-2.8-1.6-5.4-3.2-8.5-4.7l-4.4-2.2
				c-1.5-0.7-3-1.5-4.3-2.1l-8.3-3.7l-7.2-3.2c-1.2-0.5-2.4-1-3.6-1.6l-3.5-1.7l-3.5-1.7c-1.2-0.6-2.4-1.1-3.5-1.7
				c-2.3-1.2-4.5-2.5-6.8-3.7c-2.3-1.1-4.4-2.6-6.7-3.8c-2.2-1.3-4.4-2.5-6.5-4c-2.1-1.4-4.2-2.8-6.3-4.1c-2-1.5-4.1-2.9-6.1-4.4
				c-1-0.7-2-1.4-3-2.2c-1-0.8-1.9-1.5-2.9-2.3c-1-0.8-1.9-1.5-2.9-2.3c-1-0.7-1.9-1.5-2.8-2.3c-1.8-1.6-3.6-3.1-5.4-4.7l-1.3-1.2
				l-1.3-1.2c-0.9-0.8-1.7-1.6-2.5-2.4c-0.9-0.8-1.7-1.6-2.5-2.4l-1.3-1.2c-0.4-0.4-0.8-0.8-1.2-1.2c-1.6-1.6-3.2-3.2-4.7-4.8
				c-1.6-1.5-3-3.2-4.5-4.8c-1.5-1.6-2.9-3.2-4.3-4.7c-2.6-3.2-5.4-6.3-7.8-9.3c-2.4-3-4.7-5.9-6.9-8.7c-2.1-2.8-4-5.5-6-7.9
				c-1.8-2.5-3.4-4.8-4.9-6.8c-0.8-1-1.5-2-2.2-3c-0.2-0.3-0.3-0.5-0.5-0.8c-0.3,0.3-0.7,0.7-1,1c-1.4,1.5-2.8,2.9-4.2,4.5
				c0.1,0.2,0.1,0.5,0.2,0.7c0.6,2.5,1.3,5.3,2.2,8.3c0.9,3,2,6.2,3.1,9.7c0.5,1.7,1.3,3.5,2,5.3c0.7,1.8,1.5,3.7,2.3,5.6
				c0.7,1.9,1.7,3.8,2.6,5.8c1,2,1.9,4,2.9,6.1c1.1,2.1,2.3,4.1,3.4,6.2c1.2,2.1,2.4,4.3,3.8,6.4c2.7,4.3,5.6,8.8,8.9,13.1
				c3.2,4.5,6.9,8.8,10.7,13.2c1.9,2.2,4,4.3,6.1,6.4c1,1.1,2.1,2.1,3.1,3.2c1.1,1.1,2.2,2,3.3,3.1c2.3,2,4.5,4.1,6.9,6.1
				c2.4,1.9,4.8,3.9,7.3,5.8c2.4,2,5,3.7,7.6,5.5c2.6,1.8,5.2,3.7,7.9,5.2c2.7,1.7,5.4,3.3,8.1,4.9c2.7,1.6,5.5,3,8.3,4.5l4.2,2.2
				c1.4,0.7,2.8,1.3,4.3,2l8.5,3.8l7.5,3.3c1.4,0.6,2.4,1.1,3.5,1.6l3.3,1.6c2.2,1,4.5,2.3,6.8,3.5c1.1,0.6,2.3,1.2,3.4,1.8
				c1.1,0.6,2.2,1.3,3.3,1.9c8.9,5.1,17.4,10.6,25.3,16.7c1,0.7,2,1.5,3,2.2c1,0.8,1.9,1.6,2.9,2.3c1,0.8,1.9,1.5,2.9,2.3
				c1,0.8,1.9,1.5,2.8,2.3c1.8,1.6,3.6,3.2,5.4,4.8l1.4,1.2l1.3,1.2c0.9,0.8,1.7,1.6,2.6,2.4c0.9,0.8,1.7,1.6,2.5,2.4
				c0.8,0.8,1.7,1.6,2.5,2.4c1.6,1.6,3.2,3.3,4.8,4.9c0.8,0.8,1.6,1.6,2.4,2.4c0.7,0.8,1.5,1.6,2.2,2.4c1.5,1.6,2.9,3.2,4.3,4.8
				c5.6,6.3,10.7,12.3,15,17.9c1.1,1.4,2.2,2.7,3.2,4c1,1.3,1.9,2.6,2.9,3.8c1.9,2.4,3.6,4.7,5.2,6.8c1,1.3,1.8,2.5,2.7,3.6
				c1-0.9,1.9-1.8,2.8-2.7c0.8-0.8,1.6-1.7,2.4-2.5c-0.1-0.4-0.2-0.8-0.3-1.2C269.4,261.8,268.6,259.1,267.7,256.1z"/>
		</g>
	</g>
</g>
</svg>
