<!--cookie--> 

<?xml version="1.0" encoding="utf-8"?>
<!-- Generator: Adobe Illustrator 19.1.0, SVG Export Plug-In . SVG Version: 6.00 Build 0)  -->
<svg version="1.1" id="Layer_1" xmlns="http://www.w3.org/2000/svg" xmlns:xlink="http://www.w3.org/1999/xlink" x="0px" y="0px"
	 viewBox="0 0 289.3 289.3" style="enable-background:new 0 0 289.3 289.3;" xml:space="preserve">
<style type="text/css">
	.st0{fill:#712E2E;}
	.st1{fill:#ED6060;}
</style>
<g>
	<g>
		<g>
			<circle class="st0" cx="144.7" cy="144.7" r="144.7"/>
		</g>
	</g>
	<g>
		<g>
			<circle class="st1" cx="143.3" cy="242.5" r="12.3"/>
		</g>
	</g>
	<g>
		<g>
			<circle class="st1" cx="156.3" cy="201.7" r="19.4"/>
		</g>
	</g>
	<g>
		<g>
			<circle class="st1" cx="107" cy="152.4" r="7.7"/>
		</g>
	</g>
	<g>
		<g>
			<circle class="st1" cx="75.5" cy="181.4" r="9.7"/>
		</g>
	</g>
	<g>
		<g>
			<circle class="st1" cx="45.6" cy="159" r="6.6"/>
		</g>
	</g>
	<g>
		<g>
			<circle class="st1" cx="90.1" cy="90.4" r="9.7"/>
		</g>
	</g>
	<g>
		<g>
			<circle class="st1" cx="155.5" cy="53.2" r="17.4"/>
		</g>
	</g>
	<g>
		<g>
			<circle class="st1" cx="215" cy="69.2" r="16"/>
		</g>
	</g>
	<g>
		<g>
			<circle class="st1" cx="197.5" cy="149.7" r="17.5"/>
		</g>
	</g>
	<g>
		<g>
			<circle class="st1" cx="248.3" cy="181.4" r="10.9"/>
		</g>
	</g>
	<g>
		<g>
			<circle class="st1" cx="206.4" cy="205.4" r="8.9"/>
		</g>
	</g>
	<g>
		<g>
			<path class="st1" d="M146.3,152.3c0,4.2-3.4,7.7-7.7,7.7s-7.7-3.4-7.7-7.7c0-4.2,3.4-7.7,7.7-7.7S146.3,148.1,146.3,152.3z"/>
		</g>
	</g>
	<g>
		<g>
			<circle class="st1" cx="90.1" cy="52.3" r="8.5"/>
		</g>
	</g>
	<g>
		<g>
			<circle class="st1" cx="52.4" cy="120.1" r="13.4"/>
		</g>
	</g>
	<g>
		<g>
			<circle class="st1" cx="123.4" cy="116.4" r="8.7"/>
		</g>
	</g>
	<g>
		<g>
			<circle class="st1" cx="207.2" cy="106.6" r="9.7"/>
		</g>
	</g>
	<g>
		<g>
			<circle class="st1" cx="98.5" cy="235.1" r="12.3"/>
		</g>
	</g>
	<g>
		<g>
			<circle class="st1" cx="197.5" cy="245.9" r="10.6"/>
		</g>
	</g>
	<g>
		<g>
			<circle class="st1" cx="42.3" cy="205" r="3.3"/>
		</g>
	</g>
	<g>
		<g>
			<circle class="st1" cx="237.4" cy="125.1" r="12.3"/>
		</g>
	</g>
	<g>
		<g>
			<circle class="st1" cx="156.5" cy="104.1" r="10.2"/>
		</g>
	</g>
	<g>
		<g>
			<circle class="st1" cx="107.2" cy="189.7" r="7.5"/>
		</g>
	</g>
	<g>
		<g>
			<circle class="st1" cx="119.1" cy="65.1" r="4.4"/>
		</g>
	</g>
</g>
</svg>
