<!--cup--> 


<?xml version="1.0" encoding="utf-8"?>
<!-- Generator: Adobe Illustrator 19.1.0, SVG Export Plug-In . SVG Version: 6.00 Build 0)  -->
<svg version="1.1" id="Layer_1" xmlns="http://www.w3.org/2000/svg" xmlns:xlink="http://www.w3.org/1999/xlink" x="0px" y="0px"
	 viewBox="0 0 385.2 230.9" style="enable-background:new 0 0 385.2 230.9;" xml:space="preserve">
<style type="text/css">
	.st0{fill:#F1F0F0;}
	.st1{fill:#FFFFFF;}
</style>
<g>
	<g>
		<g>
			<path class="st0" d="M327.4,0H0c0,105.9,32.2,196.2,98.9,230.9h129.5C294.9,196.2,327.4,105.9,327.4,0z"/>
		</g>
	</g>
	<g>
		<g>
			<path class="st1" d="M222.4,0H65c0,105.9,15.5,196.2,47.5,230.9h72.3C211.7,193.7,222.4,116.8,222.4,0z"/>
		</g>
	</g>
	<g>
		<g>
			<g>
				<path class="st0" d="M258.4,208.1L244.5,189c14.4-18.7,37.2-27.6,59.2-36.2c29.2-11.4,56.8-22.2,60.7-52.7
					c2.4-18.7-0.2-31-7.4-36.5c-14.3-10.7-45.3,1.6-60.5,19.3l-13.1-20.2c18.2-21,58.4-41.1,83.4-22.4c10.6,7.9,22.2,25.5,17.4,64.1
					c-5.9,47-42.5,61.3-74.8,73.9C289.6,186.1,269.3,194,258.4,208.1z"/>
			</g>
		</g>
	</g>
</g>
</svg>
