<?xml version="1.0" encoding="utf-8"?>
<!-- Generator: Adobe Illustrator 19.1.0, SVG Export Plug-In . SVG Version: 6.00 Build 0)  -->
<svg version="1.1" id="Layer_1" xmlns="http://www.w3.org/2000/svg" xmlns:xlink="http://www.w3.org/1999/xlink" x="0px" y="0px"
	 viewBox="0 0 305.8 305.8" style="enable-background:new 0 0 305.8 305.8;" xml:space="preserve">
<style type="text/css">
	.st0{fill:#FFD492;}
	.st1{fill:#BA6D4F;}
	.st2{fill:#7A2221;}
	.st3{fill:#A92D2D;}
	.st4{fill:#FEE930;}
</style>
<g>
	<g>
		<g>
			<g>
				<path class="st0" d="M63.6,14.1c14.4-14.4,77.1,25.1,140.2,88.1c63,63,102.5,125.8,88.1,140.2C324,210.1,299,132.9,236,69.9
					C172.9,6.9,95.7-18.1,63.6,14.1z"/>
			</g>
		</g>
		<g>
			<g>
				<path class="st0" d="M102.1,203.7c-63-63-102.5-125.8-88.1-140.2C-18.1,95.7,6.9,172.9,69.9,236c63,63,140.2,88,172.4,55.8
					C227.9,306.2,165.2,266.7,102.1,203.7z"/>
			</g>
		</g>
	</g>
	<g>
		<g>
			<g>
				
					<ellipse transform="matrix(0.7071 -0.7071 0.7071 0.7071 -88.0901 142.6714)" class="st1" cx="128.2" cy="177.7" rx="36.8" ry="161.4"/>
			</g>
		</g>
		<g>
			<g>
				
					<ellipse transform="matrix(0.7071 -0.7071 0.7071 0.7071 -38.5931 163.1657)" class="st1" cx="177.7" cy="128.2" rx="36.8" ry="161.4"/>
			</g>
		</g>
	</g>
	<g>
		<g>
			<g>
				<path class="st2" d="M220.3,274.3c-13.2,0-26.4-5-36.4-15.1L44.1,119.5C24,99.4,24,66.8,44.1,46.7c20.1-20.1,52.7-20.1,72.8,0
					l139.8,139.8c20.1,20.1,20.1,52.7,0,72.8C246.6,269.3,233.4,274.3,220.3,274.3z"/>
			</g>
		</g>
	</g>
	<g>
		<g>
			<g>
				<path class="st3" d="M191.9,235.9c-8.9-1.1-18.3-5.6-25.9-13.3L59.5,116.2c-15.3-15.3-18-37.4-6.1-49.4c12-12,34.1-9.2,49.4,6.1
					l106.4,106.4c15.3,15.3,18,37.4,6.1,49.4C209.4,234.7,200.8,237,191.9,235.9z"/>
			</g>
		</g>
	</g>
	<g>
		<g>
			<g>
				<path class="st4" d="M229.6,254.6c-1.7,1.7-3.5,3.1-5.4,4.3c-2.9,1.7-6.5,0.7-8.2-2.1c-1.7-2.9-0.7-6.5,2.1-8.2
					c4.9-2.9,9.2-10,10.7-17.7c1.2-6,0.5-11.4-1.9-14.5c-9.8-12.9-16-10.1-26.1-5.4c-8.8,4.1-20.8,9.7-32.9-3
					c-13.7-14.4-9.8-27.7-6.9-37.5c2.7-9,3.8-14-1.9-20c-5.9-6.2-11.5-5-20.8-2.4c-9,2.5-21.2,5.9-31.6-5.8
					c-13.8-15.5-10.1-27.9-7.4-36.9c2.5-8.4,3.9-13.1-5-20.7c-2.7-2.4-6.3-3.3-10.5-2.8c-6.9,0.8-14.9,5.5-19.4,11.5
					c-2,2.6-5.7,3.2-8.4,1.2c-2.7-2-3.2-5.7-1.2-8.4c6.5-8.7,17.4-15.1,27.7-16.2c7.5-0.8,14.3,1.1,19.6,5.7
					c14.8,12.7,11.4,24.1,8.7,33.3c-2.5,8.4-4.5,15.1,4.8,25.5c5.2,5.8,10.2,4.8,19.5,2.2c9.1-2.5,21.6-6,32.8,5.7
					c10.7,11.3,7.4,22.6,4.7,31.6c-2.7,9.2-4.9,16.4,4.1,25.8c5.9,6.2,10.2,4.6,19.1,0.4c10-4.7,25-11.7,40.7,9
					c4.5,6,6,14.5,4.1,24.1C238.9,241.6,234.9,249.4,229.6,254.6z"/>
			</g>
		</g>
	</g>
</g>
</svg>
