<?xml version="1.0" encoding="utf-8"?>
<!-- Generator: Adobe Illustrator 19.1.0, SVG Export Plug-In . SVG Version: 6.00 Build 0)  -->
<svg version="1.1" id="Layer_1" xmlns="http://www.w3.org/2000/svg" xmlns:xlink="http://www.w3.org/1999/xlink" x="0px" y="0px"
	 viewBox="0 0 194.3 320" style="enable-background:new 0 0 194.3 320;" xml:space="preserve">
<style type="text/css">
	.st0{fill:#F5F6F6;}
	.st1{fill:#F27A95;}
	.st2{fill:#DF4746;}
	.st3{fill:#FECE92;}
	.st4{fill:#FCBC6E;}
</style>
<g>
	<g>
		<g>
			<circle class="st0" cx="90.3" cy="51.5" r="51.5"/>
		</g>
	</g>
	<g>
		<g>
			<circle class="st1" cx="132.6" cy="85.8" r="61.8"/>
		</g>
	</g>
	<g>
		<g>
			<circle class="st2" cx="49.2" cy="90.2" r="49.2"/>
		</g>
	</g>
	<g>
		<g>
			<polygon class="st3" points="96.8,320 96.8,320 2.7,106.2 190.9,106.2 			"/>
		</g>
	</g>
	<g>
		<g>
			<g>
				<polygon class="st3" points="102.8,106.2 90.4,106.2 96.6,120.2 				"/>
			</g>
		</g>
		<g>
			<g>
				<polygon class="st3" points="2.7,106.2 8.5,119.5 14.4,106.2 				"/>
			</g>
		</g>
		<g>
			<g>
				<polygon class="st3" points="104.6,152.2 96.6,134 88.6,152.2 96.6,170.4 				"/>
			</g>
		</g>
		<g>
			<g>
				<polygon class="st3" points="124.9,106.2 112.5,106.2 118.7,120.2 				"/>
			</g>
		</g>
		<g>
			<g>
				<polygon class="st3" points="49.4,127.1 41.4,108.9 33.3,127.1 41.4,145.3 				"/>
			</g>
		</g>
		<g>
			<g>
				<polygon class="st3" points="82.5,152.2 74.5,134 66.5,152.2 74.5,170.4 				"/>
			</g>
		</g>
		<g>
			<g>
				<polygon class="st3" points="80.7,106.2 68.3,106.2 74.5,120.2 				"/>
			</g>
		</g>
		<g>
			<g>
				<polygon class="st3" points="30.3,134 22.6,151.5 30.6,169.7 38.3,152.2 				"/>
			</g>
		</g>
		<g>
			<g>
				<polygon class="st3" points="19.3,108.9 11.6,126.4 19.6,144.6 27.3,127.1 				"/>
			</g>
		</g>
		<g>
			<g>
				<polygon class="st3" points="36.5,106.2 24.1,106.2 30.3,120.2 				"/>
			</g>
		</g>
		<g>
			<g>
				<polygon class="st3" points="126.7,152.2 118.7,134 110.7,152.2 118.7,170.4 				"/>
			</g>
		</g>
		<g>
			<g>
				<polygon class="st3" points="58.6,106.2 46.2,106.2 52.4,120.2 				"/>
			</g>
		</g>
		<g>
			<g>
				<polygon class="st3" points="63.5,159.1 55.4,177.3 63.5,195.5 71.5,177.3 				"/>
			</g>
		</g>
		<g>
			<g>
				<polygon class="st3" points="121.7,177.3 129.8,195.5 137.8,177.3 129.8,159.1 				"/>
			</g>
		</g>
		<g>
			<g>
				<polygon class="st3" points="137.8,127.1 129.8,108.9 121.7,127.1 129.8,145.3 				"/>
			</g>
		</g>
		<g>
			<g>
				<polygon class="st3" points="132.8,152.2 140.8,170.4 148.8,152.2 140.8,134 				"/>
			</g>
		</g>
		<g>
			<g>
				<polygon class="st3" points="115.7,127.1 107.7,108.9 99.6,127.1 107.7,145.3 				"/>
			</g>
		</g>
		<g>
			<g>
				<polygon class="st3" points="93.6,127.1 85.6,108.9 77.5,127.1 85.6,145.3 				"/>
			</g>
		</g>
		<g>
			<g>
				<polygon class="st3" points="71.5,127.1 63.5,108.9 55.4,127.1 63.5,145.3 				"/>
			</g>
		</g>
		<g>
			<g>
				<polygon class="st3" points="85.6,209.3 77.5,227.5 85.6,245.7 93.6,227.5 				"/>
			</g>
		</g>
		<g>
			<g>
				<polygon class="st3" points="74.5,184.2 66.5,202.4 74.5,220.6 82.5,202.4 				"/>
			</g>
		</g>
		<g>
			<g>
				<polygon class="st3" points="88.6,252.6 96.6,270.8 104.6,252.6 96.6,234.4 				"/>
			</g>
		</g>
		<g>
			<g>
				<polygon class="st3" points="110.7,202.4 118.7,220.6 126.7,202.4 118.7,184.2 				"/>
			</g>
		</g>
		<g>
			<g>
				<polygon class="st3" points="99.6,227.5 107.7,245.7 115.7,227.5 107.7,209.3 				"/>
			</g>
		</g>
		<g>
			<g>
				<polygon class="st3" points="147,106.2 134.6,106.2 140.8,120.2 				"/>
			</g>
		</g>
		<g>
			<g>
				<polygon class="st3" points="169.1,106.2 156.7,106.2 162.9,120.2 				"/>
			</g>
		</g>
		<g>
			<g>
				<polygon class="st3" points="85.6,259.5 77.9,277 85.9,295.2 93.6,277.7 				"/>
			</g>
		</g>
		<g>
			<g>
				<polygon class="st3" points="159.9,127.1 151.9,108.9 143.8,127.1 151.9,145.3 				"/>
			</g>
		</g>
		<g>
			<g>
				<polygon class="st3" points="88.9,302.1 96.8,320 104.5,302.5 96.6,284.6 				"/>
			</g>
		</g>
		<g>
			<g>
				<polygon class="st3" points="63.5,209.3 55.8,226.8 63.8,245 71.5,227.5 				"/>
			</g>
		</g>
		<g>
			<g>
				<polygon class="st3" points="93.6,177.3 85.6,159.1 77.5,177.3 85.6,195.5 				"/>
			</g>
		</g>
		<g>
			<g>
				<polygon class="st3" points="115.7,177.3 107.7,159.1 99.6,177.3 107.7,195.5 				"/>
			</g>
		</g>
		<g>
			<g>
				<polygon class="st3" points="74.5,234.4 66.8,251.9 74.8,270.1 82.5,252.6 				"/>
			</g>
		</g>
		<g>
			<g>
				<polygon class="st3" points="52.4,134 44.4,152.2 52.4,170.4 60.4,152.2 				"/>
			</g>
		</g>
		<g>
			<g>
				<polygon class="st3" points="154.9,152.2 162.8,170.1 170.8,151.9 162.9,134 				"/>
			</g>
		</g>
		<g>
			<g>
				<polygon class="st3" points="190.9,106.2 178.8,106.2 184.8,119.9 				"/>
			</g>
		</g>
		<g>
			<g>
				<polygon class="st3" points="174,108.9 165.9,127.1 173.8,145 181.8,126.8 				"/>
			</g>
		</g>
		<g>
			<g>
				<polygon class="st3" points="143.8,177.3 151.7,195.2 159.7,177 151.9,159.1 				"/>
			</g>
		</g>
		<g>
			<g>
				<polygon class="st3" points="121.7,227.5 129.6,245.4 137.6,227.2 129.8,209.3 				"/>
			</g>
		</g>
		<g>
			<g>
				<polygon class="st3" points="110.7,252.6 118.6,270.5 126.6,252.3 118.7,234.4 				"/>
			</g>
		</g>
		<g>
			<g>
				<polygon class="st3" points="132.8,202.4 140.7,220.3 148.7,202.1 140.8,184.2 				"/>
			</g>
		</g>
		<g>
			<g>
				<polygon class="st3" points="99.6,277.7 107.5,295.6 115.5,277.4 107.7,259.5 				"/>
			</g>
		</g>
		<g>
			<g>
				<polygon class="st3" points="41.4,159.1 33.7,176.6 41.7,194.8 49.4,177.3 				"/>
			</g>
		</g>
		<g>
			<g>
				<polygon class="st3" points="52.4,184.2 44.7,201.7 52.7,219.9 60.4,202.4 				"/>
			</g>
		</g>
		<g>
			<g>
				<polygon class="st3" points="88.6,202.4 96.6,220.6 104.6,202.4 96.6,184.2 				"/>
			</g>
		</g>
		<g>
			<g>
				<polygon class="st4" points="88.6,252.6 85.6,259.5 93.6,277.7 96.6,270.8 				"/>
			</g>
		</g>
		<g>
			<g>
				<polygon class="st4" points="77.5,227.5 74.5,234.4 82.5,252.6 85.6,245.7 				"/>
			</g>
		</g>
		<g>
			<g>
				<polygon class="st4" points="44.4,152.2 41.4,159.1 49.4,177.3 52.4,170.4 				"/>
			</g>
		</g>
		<g>
			<g>
				<polygon class="st4" points="66.5,202.4 63.5,209.3 71.5,227.5 74.5,220.6 				"/>
			</g>
		</g>
		<g>
			<g>
				<polygon class="st4" points="33.3,127.1 30.3,134 38.3,152.2 41.4,145.3 				"/>
			</g>
		</g>
		<g>
			<g>
				<polygon class="st4" points="19.3,108.9 27.3,127.1 30.3,120.2 24.1,106.2 20.5,106.2 				"/>
			</g>
		</g>
		<g>
			<g>
				<polygon class="st4" points="55.4,177.3 52.4,184.2 60.4,202.4 63.5,195.5 				"/>
			</g>
		</g>
		<g>
			<g>
				<polygon class="st4" points="96.6,284.6 104.5,302.5 107.5,295.6 99.6,277.7 				"/>
			</g>
		</g>
		<g>
			<g>
				<polygon class="st4" points="60.4,152.2 63.5,145.3 55.4,127.1 52.4,134 				"/>
			</g>
		</g>
		<g>
			<g>
				<polygon class="st4" points="96.6,234.4 104.6,252.6 107.7,245.7 99.6,227.5 				"/>
			</g>
		</g>
		<g>
			<g>
				<polygon class="st4" points="71.5,177.3 74.5,170.4 66.5,152.2 63.5,159.1 				"/>
			</g>
		</g>
		<g>
			<g>
				<polygon class="st4" points="77.5,177.3 74.5,184.2 82.5,202.4 85.6,195.5 				"/>
			</g>
		</g>
		<g>
			<g>
				<polygon class="st4" points="41.4,108.9 49.4,127.1 52.4,120.2 46.2,106.2 42.6,106.2 				"/>
			</g>
		</g>
		<g>
			<g>
				<polygon class="st4" points="107.7,259.5 115.5,277.4 118.6,270.5 110.7,252.6 				"/>
			</g>
		</g>
		<g>
			<g>
				<polygon class="st4" points="88.6,202.4 85.6,209.3 93.6,227.5 96.6,220.6 				"/>
			</g>
		</g>
		<g>
			<g>
				<polygon class="st4" points="107.7,209.3 115.7,227.5 118.7,220.6 110.7,202.4 				"/>
			</g>
		</g>
		<g>
			<g>
				<polygon class="st4" points="118.7,234.4 126.6,252.3 129.6,245.4 121.7,227.5 				"/>
			</g>
		</g>
		<g>
			<g>
				<polygon class="st4" points="82.5,152.2 85.6,145.3 77.5,127.1 74.5,134 				"/>
			</g>
		</g>
		<g>
			<g>
				<polygon class="st4" points="104.6,202.4 107.7,195.5 99.6,177.3 96.6,184.2 				"/>
			</g>
		</g>
		<g>
			<g>
				<polygon class="st4" points="93.6,177.3 96.6,170.4 88.6,152.2 85.6,159.1 				"/>
			</g>
		</g>
		<g>
			<g>
				<polygon class="st4" points="63.5,108.9 71.5,127.1 74.5,120.2 68.3,106.2 64.7,106.2 				"/>
			</g>
		</g>
		<g>
			<g>
				<polygon class="st4" points="85.6,108.9 93.6,127.1 96.6,120.2 90.4,106.2 86.8,106.2 				"/>
			</g>
		</g>
		<g>
			<g>
				<polygon class="st4" points="118.7,184.2 126.7,202.4 129.8,195.5 121.7,177.3 				"/>
			</g>
		</g>
		<g>
			<g>
				<polygon class="st4" points="129.8,209.3 137.6,227.2 140.7,220.3 132.8,202.4 				"/>
			</g>
		</g>
		<g>
			<g>
				<polygon class="st4" points="115.7,177.3 118.7,170.4 110.7,152.2 107.7,159.1 				"/>
			</g>
		</g>
		<g>
			<g>
				<polygon class="st4" points="104.6,152.2 107.7,145.3 99.6,127.1 96.6,134 				"/>
			</g>
		</g>
		<g>
			<g>
				<polygon class="st4" points="129.8,159.1 137.8,177.3 140.8,170.4 132.8,152.2 				"/>
			</g>
		</g>
		<g>
			<g>
				<polygon class="st4" points="126.7,152.2 129.8,145.3 121.7,127.1 118.7,134 				"/>
			</g>
		</g>
		<g>
			<g>
				<polygon class="st4" points="140.8,184.2 148.7,202.1 151.7,195.2 143.8,177.3 				"/>
			</g>
		</g>
		<g>
			<g>
				<polygon class="st4" points="107.7,108.9 115.7,127.1 118.7,120.2 112.5,106.2 108.9,106.2 				"/>
			</g>
		</g>
		<g>
			<g>
				<polygon class="st4" points="148.8,152.2 151.9,145.3 143.8,127.1 140.8,134 				"/>
			</g>
		</g>
		<g>
			<g>
				<polygon class="st4" points="151.9,159.1 159.7,177 162.8,170.1 154.9,152.2 				"/>
			</g>
		</g>
		<g>
			<g>
				<polygon class="st4" points="129.8,108.9 137.8,127.1 140.8,120.2 134.6,106.2 131,106.2 				"/>
			</g>
		</g>
		<g>
			<g>
				<polygon class="st4" points="151.9,108.9 159.9,127.1 162.9,120.2 156.7,106.2 153,106.2 				"/>
			</g>
		</g>
		<g>
			<g>
				<polygon class="st4" points="162.9,134 170.8,151.9 173.8,145 165.9,127.1 				"/>
			</g>
		</g>
		<g>
			<g>
				<polygon class="st4" points="174,108.9 181.8,126.8 184.8,119.9 178.8,106.2 175.1,106.2 				"/>
			</g>
		</g>
		<g>
			<g>
				<polygon class="st4" points="165.9,127.1 174,108.9 172.8,106.2 169.1,106.2 162.9,120.2 				"/>
			</g>
		</g>
		<g>
			<g>
				<polygon class="st4" points="140.8,170.4 143.8,177.3 151.9,159.1 148.8,152.2 				"/>
			</g>
		</g>
		<g>
			<g>
				<polygon class="st4" points="118.7,220.6 121.7,227.5 129.8,209.3 126.7,202.4 				"/>
			</g>
		</g>
		<g>
			<g>
				<polygon class="st4" points="93.6,277.7 85.9,295.2 88.9,302.1 96.6,284.6 				"/>
			</g>
		</g>
		<g>
			<g>
				<polygon class="st4" points="107.7,245.7 110.7,252.6 118.7,234.4 115.7,227.5 				"/>
			</g>
		</g>
		<g>
			<g>
				<polygon class="st4" points="96.6,270.8 99.6,277.7 107.7,259.5 104.6,252.6 				"/>
			</g>
		</g>
		<g>
			<g>
				<polygon class="st4" points="129.8,195.5 132.8,202.4 140.8,184.2 137.8,177.3 				"/>
			</g>
		</g>
		<g>
			<g>
				<polygon class="st4" points="151.9,145.3 154.9,152.2 162.9,134 159.9,127.1 				"/>
			</g>
		</g>
		<g>
			<g>
				<polygon class="st4" points="93.6,277.7 96.6,284.6 99.6,277.7 96.6,270.8 				"/>
			</g>
		</g>
		<g>
			<g>
				<polygon class="st4" points="104.6,252.6 107.7,259.5 110.7,252.6 107.7,245.7 				"/>
			</g>
		</g>
		<g>
			<g>
				<polygon class="st4" points="115.7,227.5 118.7,234.4 121.7,227.5 118.7,220.6 				"/>
			</g>
		</g>
		<g>
			<g>
				<polygon class="st4" points="126.7,202.4 129.8,209.3 132.8,202.4 129.8,195.5 				"/>
			</g>
		</g>
		<g>
			<g>
				<polygon class="st4" points="137.8,177.3 140.8,184.2 143.8,177.3 140.8,170.4 				"/>
			</g>
		</g>
		<g>
			<g>
				<polygon class="st4" points="148.8,152.2 151.9,159.1 154.9,152.2 151.9,145.3 				"/>
			</g>
		</g>
		<g>
			<g>
				<polygon class="st4" points="159.9,127.1 162.9,134 165.9,127.1 162.9,120.2 				"/>
			</g>
		</g>
		<g>
			<g>
				<polygon class="st4" points="172.8,106.2 174,108.9 175.1,106.2 				"/>
			</g>
		</g>
		<g>
			<g>
				<polygon class="st4" points="143.8,127.1 151.9,108.9 150.7,106.2 147,106.2 140.8,120.2 				"/>
			</g>
		</g>
		<g>
			<g>
				<polygon class="st4" points="132.8,152.2 140.8,134 137.8,127.1 129.8,145.3 				"/>
			</g>
		</g>
		<g>
			<g>
				<polygon class="st4" points="107.7,195.5 110.7,202.4 118.7,184.2 115.7,177.3 				"/>
			</g>
		</g>
		<g>
			<g>
				<polygon class="st4" points="82.5,252.6 74.8,270.1 77.9,277 85.6,259.5 				"/>
			</g>
		</g>
		<g>
			<g>
				<polygon class="st4" points="121.7,177.3 129.8,159.1 126.7,152.2 118.7,170.4 				"/>
			</g>
		</g>
		<g>
			<g>
				<polygon class="st4" points="96.6,220.6 99.6,227.5 107.7,209.3 104.6,202.4 				"/>
			</g>
		</g>
		<g>
			<g>
				<polygon class="st4" points="93.6,227.5 85.6,245.7 88.6,252.6 96.6,234.4 				"/>
			</g>
		</g>
		<g>
			<g>
				<polygon class="st4" points="85.6,245.7 82.5,252.6 85.6,259.5 88.6,252.6 				"/>
			</g>
		</g>
		<g>
			<g>
				<polygon class="st4" points="93.6,227.5 96.6,234.4 99.6,227.5 96.6,220.6 				"/>
			</g>
		</g>
		<g>
			<g>
				<polygon class="st4" points="104.6,202.4 107.7,209.3 110.7,202.4 107.7,195.5 				"/>
			</g>
		</g>
		<g>
			<g>
				<polygon class="st4" points="115.7,177.3 118.7,184.2 121.7,177.3 118.7,170.4 				"/>
			</g>
		</g>
		<g>
			<g>
				<polygon class="st4" points="132.8,152.2 129.8,145.3 126.7,152.2 129.8,159.1 				"/>
			</g>
		</g>
		<g>
			<g>
				<polygon class="st4" points="143.8,127.1 140.8,120.2 137.8,127.1 140.8,134 				"/>
			</g>
		</g>
		<g>
			<g>
				<polygon class="st4" points="150.7,106.2 151.9,108.9 153,106.2 				"/>
			</g>
		</g>
		<g>
			<g>
				<polygon class="st4" points="71.5,227.5 63.8,245 66.8,251.9 74.5,234.4 				"/>
			</g>
		</g>
		<g>
			<g>
				<polygon class="st4" points="82.5,202.4 74.5,220.6 77.5,227.5 85.6,209.3 				"/>
			</g>
		</g>
		<g>
			<g>
				<polygon class="st4" points="110.7,152.2 118.7,134 115.7,127.1 107.7,145.3 				"/>
			</g>
		</g>
		<g>
			<g>
				<polygon class="st4" points="99.6,177.3 107.7,159.1 104.6,152.2 96.6,170.4 				"/>
			</g>
		</g>
		<g>
			<g>
				<polygon class="st4" points="88.6,202.4 96.6,184.2 93.6,177.3 85.6,195.5 				"/>
			</g>
		</g>
		<g>
			<g>
				<polygon class="st4" points="121.7,127.1 129.8,108.9 128.6,106.2 124.9,106.2 118.7,120.2 				"/>
			</g>
		</g>
		<g>
			<g>
				<polygon class="st4" points="74.5,220.6 71.5,227.5 74.5,234.4 77.5,227.5 				"/>
			</g>
		</g>
		<g>
			<g>
				<polygon class="st4" points="85.6,195.5 82.5,202.4 85.6,209.3 88.6,202.4 				"/>
			</g>
		</g>
		<g>
			<g>
				<polygon class="st4" points="99.6,177.3 96.6,170.4 93.6,177.3 96.6,184.2 				"/>
			</g>
		</g>
		<g>
			<g>
				<polygon class="st4" points="110.7,152.2 107.7,145.3 104.6,152.2 107.7,159.1 				"/>
			</g>
		</g>
		<g>
			<g>
				<polygon class="st4" points="121.7,127.1 118.7,120.2 115.7,127.1 118.7,134 				"/>
			</g>
		</g>
		<g>
			<g>
				<polygon class="st4" points="128.6,106.2 129.8,108.9 131,106.2 				"/>
			</g>
		</g>
		<g>
			<g>
				<polygon class="st4" points="77.5,177.3 85.6,159.1 82.5,152.2 74.5,170.4 				"/>
			</g>
		</g>
		<g>
			<g>
				<polygon class="st4" points="71.5,177.3 63.5,195.5 66.5,202.4 74.5,184.2 				"/>
			</g>
		</g>
		<g>
			<g>
				<polygon class="st4" points="60.4,202.4 52.7,219.9 55.8,226.8 63.5,209.3 				"/>
			</g>
		</g>
		<g>
			<g>
				<polygon class="st4" points="88.6,152.2 96.6,134 93.6,127.1 85.6,145.3 				"/>
			</g>
		</g>
		<g>
			<g>
				<polygon class="st4" points="99.6,127.1 107.7,108.9 106.5,106.2 102.8,106.2 96.6,120.2 				"/>
			</g>
		</g>
		<g>
			<g>
				<polygon class="st4" points="63.5,195.5 60.4,202.4 63.5,209.3 66.5,202.4 				"/>
			</g>
		</g>
		<g>
			<g>
				<polygon class="st4" points="74.5,170.4 71.5,177.3 74.5,184.2 77.5,177.3 				"/>
			</g>
		</g>
		<g>
			<g>
				<polygon class="st4" points="88.6,152.2 85.6,145.3 82.5,152.2 85.6,159.1 				"/>
			</g>
		</g>
		<g>
			<g>
				<polygon class="st4" points="99.6,127.1 96.6,120.2 93.6,127.1 96.6,134 				"/>
			</g>
		</g>
		<g>
			<g>
				<polygon class="st4" points="106.5,106.2 107.7,108.9 108.9,106.2 				"/>
			</g>
		</g>
		<g>
			<g>
				<polygon class="st4" points="60.4,152.2 52.4,170.4 55.4,177.3 63.5,159.1 				"/>
			</g>
		</g>
		<g>
			<g>
				<polygon class="st4" points="77.5,127.1 85.6,108.9 84.4,106.2 80.7,106.2 74.5,120.2 				"/>
			</g>
		</g>
		<g>
			<g>
				<polygon class="st4" points="66.5,152.2 74.5,134 71.5,127.1 63.5,145.3 				"/>
			</g>
		</g>
		<g>
			<g>
				<polygon class="st4" points="49.4,177.3 41.7,194.8 44.7,201.7 52.4,184.2 				"/>
			</g>
		</g>
		<g>
			<g>
				<polygon class="st4" points="52.4,170.4 49.4,177.3 52.4,184.2 55.4,177.3 				"/>
			</g>
		</g>
		<g>
			<g>
				<polygon class="st4" points="66.5,152.2 63.5,145.3 60.4,152.2 63.5,159.1 				"/>
			</g>
		</g>
		<g>
			<g>
				<polygon class="st4" points="77.5,127.1 74.5,120.2 71.5,127.1 74.5,134 				"/>
			</g>
		</g>
		<g>
			<g>
				<polygon class="st4" points="84.4,106.2 85.6,108.9 86.8,106.2 				"/>
			</g>
		</g>
		<g>
			<g>
				<polygon class="st4" points="55.4,127.1 63.5,108.9 62.3,106.2 58.6,106.2 52.4,120.2 				"/>
			</g>
		</g>
		<g>
			<g>
				<polygon class="st4" points="38.3,152.2 30.6,169.7 33.7,176.6 41.4,159.1 				"/>
			</g>
		</g>
		<g>
			<g>
				<polygon class="st4" points="44.4,152.2 52.4,134 49.4,127.1 41.4,145.3 				"/>
			</g>
		</g>
		<g>
			<g>
				<polygon class="st4" points="41.4,145.3 38.3,152.2 41.4,159.1 44.4,152.2 				"/>
			</g>
		</g>
		<g>
			<g>
				<polygon class="st4" points="55.4,127.1 52.4,120.2 49.4,127.1 52.4,134 				"/>
			</g>
		</g>
		<g>
			<g>
				<polygon class="st4" points="62.3,106.2 63.5,108.9 64.7,106.2 				"/>
			</g>
		</g>
		<g>
			<g>
				<polygon class="st4" points="27.3,127.1 19.6,144.6 22.6,151.5 30.3,134 				"/>
			</g>
		</g>
		<g>
			<g>
				<polygon class="st4" points="33.3,127.1 41.4,108.9 40.2,106.2 36.5,106.2 30.3,120.2 				"/>
			</g>
		</g>
		<g>
			<g>
				<polygon class="st4" points="30.3,120.2 27.3,127.1 30.3,134 33.3,127.1 				"/>
			</g>
		</g>
		<g>
			<g>
				<polygon class="st4" points="40.2,106.2 41.4,108.9 42.6,106.2 				"/>
			</g>
		</g>
		<g>
			<g>
				<polygon class="st4" points="18.1,106.2 14.4,106.2 8.5,119.5 11.6,126.4 19.3,108.9 				"/>
			</g>
		</g>
		<g>
			<g>
				<polygon class="st4" points="18.1,106.2 19.3,108.9 20.5,106.2 				"/>
			</g>
		</g>
	</g>
</g>
</svg>
