<?xml version="1.0" encoding="utf-8"?>
<!-- Generator: Adobe Illustrator 19.1.0, SVG Export Plug-In . SVG Version: 6.00 Build 0)  -->
<svg version="1.1" id="Layer_1" xmlns="http://www.w3.org/2000/svg" xmlns:xlink="http://www.w3.org/1999/xlink" x="0px" y="0px"
	 viewBox="0 0 200 326.7" style="enable-background:new 0 0 200 326.7;" xml:space="preserve">
<style type="text/css">
	.st0{fill:#ECBB87;}
	.st1{fill:#7CD0DE;}
	.st2{fill:#A2D188;}
	.st3{fill:#FAF081;}
	.st4{fill:#F48165;}
</style>
<g>
	<g>
		<g>
			<path class="st0" d="M100,326.7c18.6,0,33.7-15.1,33.7-33.7v-10.1V251c0-5.6-4.5-10.1-10.1-10.1H76.4c-5.6,0-10.1,4.5-10.1,10.1
				v31.9V293C66.3,311.6,81.4,326.7,100,326.7z"/>
		</g>
	</g>
	<g>
		<g>
			<path class="st1" d="M100,0C58.6,0,23.1,25.1,7.9,60.9h184.2C176.9,25.1,141.4,0,100,0z"/>
		</g>
	</g>
	<g>
		<g>
			<path class="st2" d="M200,100c0-13.9-2.8-27.1-7.9-39.1H7.9C2.8,72.9,0,86.1,0,100v27.3h200V100z"/>
		</g>
	</g>
	<g>
		<g>
			<polygon class="st3" points="200,130 200,127.3 0,127.3 0,130 0,193.7 200,193.7 			"/>
		</g>
	</g>
	<g>
		<g>
			<path class="st4" d="M0,193.7v30.9c0,16.5,13.5,30,30,30h140c16.5,0,30-13.5,30-30v-30.9H0z"/>
		</g>
	</g>
</g>
</svg>
