<!--wine--> 


<?xml version="1.0" encoding="utf-8"?>
<!-- Generator: Adobe Illustrator 19.1.0, SVG Export Plug-In . SVG Version: 6.00 Build 0)  -->
<svg version="1.1" id="Layer_1" xmlns="http://www.w3.org/2000/svg" xmlns:xlink="http://www.w3.org/1999/xlink" x="0px" y="0px"
	 viewBox="0 0 265.6 339.3" style="enable-background:new 0 0 265.6 339.3;" xml:space="preserve">
<style type="text/css">
	.st0{fill:#FAFAFA;}
	.st1{fill:#F04F4D;}
</style>
<g>
	<g>
		<g>
			<g>
				<path class="st0" d="M217,0c28.8,54.1,48.6,91.5,48.6,141.5c0,73.3-59.5,124.2-132.8,124.2S0,214.8,0,141.5
					C0,93.3,16.1,58.4,43.8,0H217z"/>
			</g>
		</g>
		<g>
			<g>
				<polygon class="st0" points="147.8,327 117.8,327 124,224.5 141.6,224.5 				"/>
			</g>
		</g>
		<g>
			<g>
				<path class="st0" d="M208,322.3c5.5,0.6,9.9,4.6,9.9,9c0,4.4-4.5,8-10,8H57.6c-5.5,0-10-3.6-10-8c0-4.4,4.5-8.5,9.9-9l65.3-6.6
					c5.5-0.6,14.4-0.6,19.9,0L208,322.3z"/>
			</g>
		</g>
	</g>
	<g>
		<g>
			<path class="st1" d="M206.2,120.7c-40.6,6.9-75.2-10.4-115-17.3c-22-3.8-42.7,0.5-62.5,7.8c-1.8,9.8-2.7,19.7-2.7,30.3
				c0,27.9,10.5,52.3,30.4,70.4c19.7,17.9,46.9,27.8,76.5,27.8s56.7-9.9,76.5-27.8c19.9-18.1,30.4-42.5,30.4-70.4
				c0-9.6-0.9-18.7-2.5-27.6C227.1,116.8,216.7,118.9,206.2,120.7z"/>
		</g>
	</g>
</g>
</svg>
